<svg width="749" height="293" viewBox="0 0 749 293" fill="none" xmlns="http://www.w3.org/2000/svg">
<path d="M141.464 238.66H0.18V181.394L130.178 0.39998H198.312V190.172H233.842V238.66H198.312V293H141.464V238.66ZM143.972 191.844V63.936H142.3L55.774 185.992V191.844H143.972ZM261.054 244.512V48.888L309.542 0.39998H439.122L487.61 48.888V244.512L439.122 293H309.542L261.054 244.512ZM412.37 244.512L430.762 226.12V67.28L412.37 48.888H336.294L317.902 67.28V226.12L336.294 244.512H412.37ZM656.208 238.66H514.924V181.394L644.922 0.39998H713.056V190.172H748.586V238.66H713.056V293H656.208V238.66ZM658.716 191.844V63.936H657.044L570.518 185.992V191.844H658.716Z" fill="white" fill-opacity="0.06"/>
</svg>
