<svg width="72" height="96" viewBox="0 0 72 96" fill="none" xmlns="http://www.w3.org/2000/svg">
<g filter="url(#filter0_f_78_4815)">
<path fill-rule="evenodd" clip-rule="evenodd" d="M25.7123 91.8437C25.8603 92.0001 26.3042 92 26.3042 92C26.7479 92 27.4876 91.5308 27.4876 91.5308L67.5008 49.2268C68.1665 48.523 68.1665 47.4283 67.5008 46.8027L27.4876 4.49878C27.0438 4.0296 26.304 3.87318 25.7123 4.10777C25.0467 4.34236 24.677 4.9679 24.677 5.67167V31.711C24.677 32.6493 25.4166 33.4313 26.3042 33.4313C27.1917 33.4313 27.9313 32.6493 27.9313 31.711V9.81605L64.0246 47.9757L27.9313 86.1353V64.2405C27.9313 63.3022 27.1917 62.5202 26.3042 62.5202C25.4166 62.5202 24.677 63.3022 24.677 64.2405V90.2797C24.677 90.9834 25.1207 91.6091 25.7123 91.8437ZM5.02276 86.51C5.16885 86.6667 5.60703 86.6668 5.60703 86.6668L5.68015 86.8234C6.04538 86.8234 6.7758 86.2749 6.7758 86.2749L15.3223 77.1059C15.9797 76.4006 15.9797 75.3035 15.3223 74.6765C14.6649 74.0496 13.6423 74.0496 13.0579 74.6765L7.21406 80.9459V16.1359L13.0579 22.3269C13.7153 23.0322 14.7379 23.0322 15.3223 22.3269C15.9797 21.6216 15.9797 20.6028 15.3223 19.8975L6.7758 10.7285C6.33752 10.1799 5.60713 10.1015 5.02276 10.3366C4.36534 10.5717 4 11.1986 4 11.904V84.9427C4 85.648 4.43838 86.2749 5.02276 86.51Z" fill="#F24A7C"/>
</g>
<path fill-rule="evenodd" clip-rule="evenodd" d="M25.7123 91.8437C25.8603 92.0001 26.3042 92 26.3042 92C26.7479 92 27.4876 91.5308 27.4876 91.5308L67.5008 49.2268C68.1665 48.523 68.1665 47.4283 67.5008 46.8027L27.4876 4.49878C27.0438 4.0296 26.304 3.87318 25.7123 4.10777C25.0467 4.34236 24.677 4.9679 24.677 5.67167V31.711C24.677 32.6493 25.4166 33.4313 26.3042 33.4313C27.1917 33.4313 27.9313 32.6493 27.9313 31.711V9.81605L64.0246 47.9757L27.9313 86.1353V64.2405C27.9313 63.3022 27.1917 62.5202 26.3042 62.5202C25.4166 62.5202 24.677 63.3022 24.677 64.2405V90.2797C24.677 90.9834 25.1207 91.6091 25.7123 91.8437ZM5.02276 86.51C5.16885 86.6667 5.60703 86.6668 5.60703 86.6668L5.68015 86.8234C6.04538 86.8234 6.7758 86.2749 6.7758 86.2749L15.3223 77.1059C15.9797 76.4006 15.9797 75.3035 15.3223 74.6765C14.6649 74.0496 13.6423 74.0496 13.0579 74.6765L7.21406 80.9459V16.1359L13.0579 22.3269C13.7153 23.0322 14.7379 23.0322 15.3223 22.3269C15.9797 21.6216 15.9797 20.6028 15.3223 19.8975L6.7758 10.7285C6.33752 10.1799 5.60713 10.1015 5.02276 10.3366C4.36534 10.5717 4 11.1986 4 11.904V84.9427C4 85.648 4.43838 86.2749 5.02276 86.51Z" fill="#FF7C1E"/>
<defs>
<filter id="filter0_f_78_4815" x="0" y="0" width="72" height="96" filterUnits="userSpaceOnUse" color-interpolation-filters="sRGB">
<feFlood flood-opacity="0" result="BackgroundImageFix"/>
<feBlend mode="normal" in="SourceGraphic" in2="BackgroundImageFix" result="shape"/>
<feGaussianBlur stdDeviation="2" result="effect1_foregroundBlur_78_4815"/>
</filter>
</defs>
</svg>
