<svg width="72" height="96" viewBox="0 0 72 96" fill="none" xmlns="http://www.w3.org/2000/svg">
<g filter="url(#filter0_f_452_371)">
<path fill-rule="evenodd" clip-rule="evenodd" d="M46.2877 91.8437C46.1397 92.0001 45.6958 92 45.6958 92C45.2521 92 44.5124 91.5308 44.5124 91.5308L4.49919 49.2268C3.83354 48.523 3.83354 47.4283 4.49919 46.8027L44.5124 4.49878C44.9562 4.0296 45.696 3.87318 46.2877 4.10777C46.9533 4.34236 47.323 4.9679 47.323 5.67167V31.711C47.323 32.6493 46.5834 33.4313 45.6958 33.4313C44.8083 33.4313 44.0687 32.6493 44.0687 31.711V9.81605L7.9754 47.9757L44.0687 86.1353V64.2405C44.0687 63.3022 44.8083 62.5202 45.6958 62.5202C46.5834 62.5202 47.323 63.3022 47.323 64.2405V90.2797C47.323 90.9834 46.8793 91.6091 46.2877 91.8437ZM66.9772 86.51C66.8312 86.6667 66.393 86.6668 66.393 86.6668L66.3199 86.8234C65.9546 86.8234 65.2242 86.2749 65.2242 86.2749L56.6777 77.1059C56.0203 76.4006 56.0203 75.3035 56.6777 74.6765C57.3351 74.0496 58.3577 74.0496 58.9421 74.6765L64.7859 80.9459V16.1359L58.9421 22.3269C58.2847 23.0322 57.2621 23.0322 56.6777 22.3269C56.0203 21.6216 56.0203 20.6028 56.6777 19.8975L65.2242 10.7285C65.6625 10.1799 66.3929 10.1015 66.9772 10.3366C67.6347 10.5717 68 11.1986 68 11.904V84.9427C68 85.648 67.5616 86.2749 66.9772 86.51Z" fill="#F24A7C"/>
</g>
<path fill-rule="evenodd" clip-rule="evenodd" d="M46.2877 91.8437C46.1397 92.0001 45.6958 92 45.6958 92C45.2521 92 44.5124 91.5308 44.5124 91.5308L4.49919 49.2268C3.83354 48.523 3.83354 47.4283 4.49919 46.8027L44.5124 4.49878C44.9562 4.0296 45.696 3.87318 46.2877 4.10777C46.9533 4.34236 47.323 4.9679 47.323 5.67167V31.711C47.323 32.6493 46.5834 33.4313 45.6958 33.4313C44.8083 33.4313 44.0687 32.6493 44.0687 31.711V9.81605L7.9754 47.9757L44.0687 86.1353V64.2405C44.0687 63.3022 44.8083 62.5202 45.6958 62.5202C46.5834 62.5202 47.323 63.3022 47.323 64.2405V90.2797C47.323 90.9834 46.8793 91.6091 46.2877 91.8437ZM66.9772 86.51C66.8312 86.6667 66.393 86.6668 66.393 86.6668L66.3199 86.8234C65.9546 86.8234 65.2242 86.2749 65.2242 86.2749L56.6777 77.1059C56.0203 76.4006 56.0203 75.3035 56.6777 74.6765C57.3351 74.0496 58.3577 74.0496 58.9421 74.6765L64.7859 80.9459V16.1359L58.9421 22.3269C58.2847 23.0322 57.2621 23.0322 56.6777 22.3269C56.0203 21.6216 56.0203 20.6028 56.6777 19.8975L65.2242 10.7285C65.6625 10.1799 66.3929 10.1015 66.9772 10.3366C67.6347 10.5717 68 11.1986 68 11.904V84.9427C68 85.648 67.5616 86.2749 66.9772 86.51Z" fill="#FF7C1E"/>
<defs>
<filter id="filter0_f_452_371" x="0" y="0" width="72" height="96" filterUnits="userSpaceOnUse" color-interpolation-filters="sRGB">
<feFlood flood-opacity="0" result="BackgroundImageFix"/>
<feBlend mode="normal" in="SourceGraphic" in2="BackgroundImageFix" result="shape"/>
<feGaussianBlur stdDeviation="2" result="effect1_foregroundBlur_452_371"/>
</filter>
</defs>
</svg>
