<svg width="316" height="71" viewBox="0 0 316 71" fill="none" xmlns="http://www.w3.org/2000/svg">
<g opacity="0.17">
<path d="M17.3001 49.022C16.4839 48.327 15.6283 47.5965 14.7571 46.8004C14.0888 46.1898 13.1862 45.9067 12.2908 46.0272C11.4231 46.1424 10.6511 46.6386 10.1833 47.3818C8.94703 49.4575 8.07292 51.7302 7.59877 54.1018C7.41272 53.8319 7.24767 53.548 7.10508 53.2525C6.61387 52.2127 5.3767 51.7699 4.34177 52.2634C4.09121 52.3828 3.86704 52.5516 3.68254 52.7596C1.94293 54.5457 0.978541 56.9515 1.00051 59.4504C0.951073 64.7027 4.46749 69.3141 9.52784 70.6332C10.4694 70.8712 11.4361 70.9944 12.4069 71C12.438 71 12.7689 70.9969 12.9026 70.9875C19.0943 70.786 24.0077 65.6807 24 59.4566C23.9959 54.7364 20.8928 52.0896 17.3001 49.022ZM18.2813 66.9268C18.2201 66.9747 18.1527 67.0133 18.0905 67.0591C18.3298 66.4057 18.453 65.7151 18.4545 65.0188C18.4545 62.3857 16.5513 59.5639 14.9563 57.6602C14.346 56.934 13.4484 56.5147 12.5024 56.5139H12.4982C11.5504 56.5122 10.6495 56.9286 10.034 57.6528C7.49819 60.6372 6.3335 63.3182 6.57201 65.6221C6.62865 66.157 6.76463 66.6803 6.97547 67.1747C4.5127 65.3818 3.06157 62.5059 3.07791 59.4503C3.05788 57.4653 3.83699 55.5564 5.23824 54.1569C5.47748 54.6566 5.76475 55.1316 6.09597 55.5751C6.55086 56.193 7.32799 56.4797 8.07273 56.3045C8.83206 56.1357 9.42162 55.534 9.57763 54.7686C9.99431 52.5558 10.7906 50.4325 11.9309 48.4936C12.0712 48.272 12.3029 48.1252 12.5625 48.0935C12.8526 48.0543 13.145 48.1463 13.3611 48.3446C14.2509 49.1574 15.1242 49.9076 15.9539 50.6131C19.4159 53.5672 21.9185 55.7012 21.9185 59.4566C21.9274 62.3791 20.5846 65.14 18.2843 66.9288L18.2813 66.9268Z" fill="#F2F1F1"/>
<path d="M18.2269 2C17.0544 2.01827 15.9074 2.34607 14.9019 2.95032C13.8964 3.55457 13.0679 4.41385 12.5 5.44141C11.9321 4.41385 11.1036 3.55457 10.0981 2.95032C9.09256 2.34607 7.94564 2.01827 6.77314 2C4.90404 2.08133 3.14305 2.90025 1.87489 4.27783C0.606735 5.65541 -0.0655042 7.47968 0.00504078 9.3521C0.00504078 14.0939 4.98845 19.2727 9.16801 22.784C10.1012 23.5694 11.2811 24 12.5 24C13.7189 24 14.8988 23.5694 15.832 22.784C20.0116 19.2727 24.995 14.0939 24.995 9.3521C25.0655 7.47968 24.3933 5.65541 23.1251 4.27783C21.8569 2.90025 20.096 2.08133 18.2269 2Z" fill="#F2F1F1"/>
<rect x="41" y="7" width="150" height="12" fill="#F3F3F3"/>
<rect x="80.0287" y="8.02868" width="234.943" height="9.94265" stroke="#F3F3F3" stroke-width="2.05735"/>
<rect x="41" y="52" width="208" height="12" fill="#F3F3F3"/>
<rect x="80.0287" y="53.0287" width="234.943" height="9.94265" stroke="#F3F3F3" stroke-width="2.05735"/>
</g>
</svg>
