<svg width="53" height="48" viewBox="0 0 53 48" fill="none" xmlns="http://www.w3.org/2000/svg">
<path d="M26.2304 0.670616C26.5646 0.625238 26.739 0.990648 26.9763 1.16261C28.1628 2.37825 29.5164 3.44582 30.6109 4.74028C35.6089 13.2617 40.5972 21.7903 45.5928 30.3142C47.3798 33.4381 49.2953 36.4999 51 39.6667C43.7694 32.9007 36.5751 26.094 29.3614 19.3065C26.5719 20.0803 23.8114 20.9759 21 21.6685C22.7241 14.666 24.4797 7.66833 26.2304 0.670616Z" fill="#F83600"/>
<path d="M1.44488 40.1087C8.27965 28.6179 15.1217 17.1318 22 5.66675C19.8799 14.4219 17.6194 23.1465 15.446 31.89C15.3104 32.5715 14.9595 33.2672 15.1096 33.9675C17.1159 35.9138 19.2385 37.7478 21.2497 39.6871C14.1705 41.6874 7.08889 43.6946 0 45.6667C0.486469 43.8164 0.849505 41.9263 1.44488 40.1087Z" fill="#F83600"/>
<path d="M28.3818 22.6904C28.6913 22.5733 28.8903 22.9221 29.1114 23.0598C31.0718 24.838 33.0666 26.5795 35 28.3806C34.2949 31.0262 33.6488 33.69 32.8947 36.3241C30.0793 37.1639 27.2198 37.905 24.375 38.6667C22.2623 36.7577 20.0857 34.913 18 32.9788C18.6928 30.2828 19.3536 27.5753 20.1348 24.9022C22.8986 24.2139 25.623 23.3925 28.3818 22.6904Z" fill="#F83600"/>
<path d="M37.2561 31.6667C42.5635 36.4097 47.7378 41.2945 53 46.0879C51.0882 46.5864 49.2144 47.245 47.2788 47.6452C34.669 47.6818 22.0591 47.6567 9.44921 47.6612C8.62885 47.6795 7.80848 47.6567 7 47.5263C10.3076 46.7465 13.5463 45.7151 16.8254 44.8301C22.9555 43.1149 29.0809 41.37 35.2182 39.6777C35.9435 37.0181 36.6022 34.3424 37.2561 31.6667Z" fill="#F83600"/>
</svg>
