<svg width="301" height="41" viewBox="0 0 301 41" fill="none" xmlns="http://www.w3.org/2000/svg">
<g clip-path="url(#clip0_963_3491)">
<path d="M16.2621 0.475586C20.8337 0.475586 24.863 2.14522 28.3471 5.48165C31.7034 8.98562 33.3815 13.0234 33.3815 17.595V22.851C33.3815 27.4226 31.7034 31.4604 28.3471 34.9643C24.863 38.3008 20.8337 39.9704 16.2621 39.9704H0.000183105V32.0595H16.2621C18.8063 32.0595 20.9785 31.1594 22.7759 29.362C24.5734 27.5646 25.4735 25.3923 25.4735 22.8481V17.5922C25.4735 15.048 24.5734 12.8758 22.7759 11.0783C20.9785 9.28092 18.8063 8.3808 16.2621 8.3808C12.1328 8.3808 7.64254 8.45305 7.64254 8.45305V17.5228H0.000183105V0.475586H16.2621Z" fill="white"/>
<path d="M73.149 39.9704H50.7481C48.573 39.9704 46.591 39.4366 44.8022 38.3661C43.0133 37.2984 41.585 35.8673 40.5145 34.0784C39.444 32.2895 38.9102 30.3075 38.9102 28.1325V12.3135C38.9102 10.1385 39.444 8.15648 40.5145 6.36758C41.5821 4.57869 43.0133 3.15041 44.8022 2.07991C46.591 1.00941 48.573 0.475586 50.7481 0.475586H73.149V8.38648H50.7481C49.6606 8.38648 48.7349 8.76981 47.9682 9.53364C47.2015 10.2975 46.8211 11.226 46.8211 12.3135V16.269H69.1964V24.1799H46.8211V28.1353C46.8211 29.2228 47.2044 30.1514 47.9682 30.9152C48.732 31.6819 49.6606 32.0624 50.7481 32.0624H73.149V39.9733V39.9704Z" fill="white"/>
<path d="M90.5215 24.1769C88.3465 24.1769 86.3645 23.6431 84.5756 22.5726C82.7867 21.505 81.3584 20.0738 80.2879 18.2849C79.2174 16.496 78.6836 14.5055 78.6836 12.3106C78.6836 10.1157 79.2174 8.15355 80.2879 6.36465C81.3556 4.57576 82.7867 3.14748 84.5756 2.07698C86.3645 1.00649 88.3465 0.472656 90.5215 0.472656H113.559V8.38639H90.5215C89.434 8.38639 88.5083 8.76972 87.7417 9.53355C86.975 10.2974 86.5945 11.2259 86.5945 12.3134C86.5945 13.401 86.9778 14.3551 87.7417 15.1217C88.5055 15.8884 89.434 16.2689 90.5215 16.2689H103.049C105.225 16.2689 107.207 16.8027 108.995 17.8732C110.784 18.9437 112.213 20.3748 113.283 22.1751C114.354 23.9725 114.887 25.9602 114.887 28.1352C114.887 30.3103 114.354 32.2923 113.283 34.0812C112.213 35.8701 110.784 37.2983 108.995 38.3688C107.207 39.4393 105.225 39.9732 103.049 39.9732H79.348V32.0623H103.049C104.137 32.0623 105.063 31.6789 105.829 30.9151C106.596 30.1513 106.977 29.2228 106.977 28.1352C106.977 27.0477 106.593 26.1163 105.829 25.3411C105.063 24.566 104.137 24.1798 103.049 24.1798H90.5215V24.1769Z" fill="white"/>
<path d="M133.914 39.9704V8.38648H120.418V0.475586H155.293V8.38648H141.797V39.9704H133.914Z" fill="white"/>
<path d="M158.727 27.4403L158.727 12.9285C158.727 10.6459 159.291 8.56005 160.422 6.67382C161.553 4.78757 163.063 3.28277 164.953 2.15937C166.844 1.03895 168.939 0.47575 171.237 0.475749L187.955 0.475749C190.254 0.475749 192.348 1.03597 194.239 2.15937C196.129 3.28277 197.639 4.78757 198.77 6.67381C199.901 8.56005 200.466 10.6459 200.466 12.9285L200.466 27.4403C200.466 29.7229 199.901 31.8028 198.77 33.6801C197.642 35.5574 196.129 37.0563 194.239 38.1797C192.348 39.3031 190.254 39.8633 187.955 39.8633L171.237 39.8633C168.939 39.8633 166.844 39.3031 164.953 38.1797C163.063 37.0592 161.553 35.5574 160.422 33.6801C159.291 31.8028 158.727 29.7229 158.727 27.4403V27.4403ZM167.087 27.4403C167.087 28.5816 167.492 29.553 168.299 30.3576C169.107 31.1621 170.088 31.5614 171.237 31.5614L186.611 31.5614L167.087 15.1634L167.087 27.4403ZM192.105 12.9285C192.105 11.7872 191.7 10.8098 190.893 9.99634C190.086 9.18285 189.104 8.77758 187.955 8.77758L172.405 8.77758L192.105 25.3515L192.105 12.9285Z" fill="white"/>
<path d="M241.188 14.9685C241.188 17.4218 240.515 19.6253 239.169 21.5789C237.823 23.5325 236.062 24.9721 233.887 25.8921L240.719 39.9704H231.951L225.562 26.8064H213.559V39.9704H205.648V22.851C205.648 21.7634 206.035 20.8321 206.81 20.0569C207.585 19.2817 208.514 18.8955 209.604 18.8955H229.35C230.437 18.8955 231.369 18.5122 232.144 17.7484C232.919 16.9845 233.305 16.056 233.305 14.9685V12.3135C233.305 11.226 232.919 10.3003 232.144 9.53364C231.369 8.76981 230.437 8.38648 229.35 8.38648H205.648V0.475586H229.35C231.525 0.475586 233.507 1.00941 235.296 2.07991C237.085 3.15041 238.513 4.57869 239.583 6.36758C240.651 8.15648 241.188 10.1385 241.188 12.3135V14.9685Z" fill="white"/>
<path d="M254.634 0.475586V39.9704H246.723V0.475586H254.634Z" fill="white"/>
<path d="M280.32 0.504883C281.095 0.504883 281.805 0.717846 282.449 1.14093C283.094 1.56402 283.582 2.1376 283.914 2.856L300.455 39.9713H291.825L280.32 14.1686L268.814 39.9713H260.156L276.696 2.856C277.029 2.1376 277.517 1.56686 278.162 1.14093C278.806 0.717846 279.525 0.504883 280.32 0.504883Z" fill="white"/>
</g>
<defs>
<clipPath id="clip0_963_3491">
<rect width="300.813" height="39.5435" fill="white" transform="translate(0 0.583496)"/>
</clipPath>
</defs>
</svg>
