<svg width="71" height="70" viewBox="0 0 71 70" fill="none" xmlns="http://www.w3.org/2000/svg">
<g clip-path="url(#clip0_518_20027)">
<path fill-rule="evenodd" clip-rule="evenodd" d="M37.6057 43.6833L37.0702 44.9157L37.8089 46.7884L40.7169 48.0508L42.5904 47.312L44.2396 43.5164L43.501 41.6436L43.1364 41.4853L40.996 42.336L41.9971 42.7705L42.2335 43.3698L41.1138 45.9466L40.5143 46.1831L39.3128 45.6615L39.059 45.0547L40.0826 42.6989L37.6057 43.6833ZM50.3446 44.6144L48.3246 43.7375L36.342 53.0224L38.362 53.8993L50.3446 44.6144ZM44.0788 50.3173L42.4295 54.1129L43.1681 55.9857L46.0762 57.2481L47.9496 56.5092L49.5989 52.7136L48.8603 50.8408L45.9522 49.5784L44.0788 50.3173ZM46.4731 55.1439L45.8736 55.3803L44.672 54.8587L44.4182 54.2519L45.5379 51.6751L46.1548 51.4462L47.3564 51.9678L47.5927 52.567L46.4731 55.1439Z" fill="#F0F0F0"/>
<path d="M18.8125 52C17.7445 51.5404 16.8857 50.6559 16.4533 49.5747L9.51192 32.1494C9.08243 31.067 9.09782 29.8343 9.55737 28.7663C10.0169 27.6982 10.9014 26.8394 11.9826 26.407L38.1205 15.995C39.2029 15.5655 40.4356 15.5809 41.5037 16.0404L53.687 21.2824C53.949 21.3951 54.1836 21.5321 54.401 21.6979C56.1274 22.7751 56.85 25.1171 56.0008 27.0908L50.7589 39.2741C50.2993 40.3422 49.4148 41.2009 48.3336 41.6333L22.1957 52.0454C21.1133 52.4749 19.8806 52.4595 18.8125 52ZM40.63 18.071C40.096 17.8412 39.4807 17.8339 38.9385 18.0482L12.8005 28.4603C12.2595 28.6775 11.8177 29.1059 11.5879 29.6399C11.3581 30.174 11.3509 30.7893 11.5652 31.3315L18.5066 48.7568C18.9381 49.8401 20.2925 50.4228 21.3757 49.9913L47.5136 39.5792C48.0567 39.3629 48.4985 38.9345 48.7283 38.4004L53.9703 26.2171C54.3922 25.2364 54.0383 24.0734 53.1437 23.5128C52.9865 23.397 52.9108 23.3548 52.8134 23.3129L40.63 18.071Z" fill="#F0F0F0"/>
<path d="M45.4293 67.8069L27.2739 59.9954C26.1571 59.5149 25.2517 58.6221 24.7893 57.5407C24.3177 56.441 24.3093 55.2019 24.7639 54.1453L27.6907 47.343C27.8058 47.0753 28.0244 46.8665 28.2964 46.7593L47.4191 39.3408C47.9633 39.1314 48.4051 38.7085 48.6329 38.1792L53.8283 26.1041C54.2465 25.132 53.8827 23.9738 52.9787 23.4107C52.5178 23.1217 52.3306 22.5522 52.5328 22.0597C52.735 21.5671 53.271 21.2921 53.8018 21.4131C55.2376 21.7447 56.4479 22.7472 57.0201 24.0929L62.4153 36.5461C62.8893 37.6516 62.8977 38.8907 62.4431 39.9472L51.4029 65.6069C50.9483 66.6635 50.0428 67.5094 48.9201 67.9231C47.8169 68.3309 46.5461 68.2874 45.4293 67.8069ZM29.5606 48.6413L26.8131 55.027C26.5914 55.5422 26.5992 56.1562 26.8372 56.7093C27.0743 57.2645 27.5496 57.729 28.1398 57.9829L46.2952 65.7944C46.8854 66.0483 47.5474 66.0732 48.1156 65.8645C48.6809 65.6569 49.132 65.2404 49.3537 64.7252L60.3939 39.0656C60.6156 38.5504 60.6078 37.9364 60.3698 37.3832L55.8713 26.9998L50.682 39.0608C50.2265 40.1194 49.3421 40.9672 48.2568 41.3899L29.5606 48.6413Z" fill="#F0F0F0"/>
<path d="M46.5106 30.1698C44.738 29.4072 43.9162 27.344 44.6788 25.5715C45.4415 23.7989 47.5046 22.9771 49.2772 23.7397C51.0497 24.5024 51.8716 26.5655 51.1089 28.3381C50.3463 30.1106 48.2832 30.9325 46.5106 30.1698ZM48.355 25.8831C47.7634 25.6286 47.0767 25.9021 46.8222 26.4937C46.5677 27.0853 46.8412 27.7719 47.4328 28.0265C48.0244 28.281 48.711 28.0074 48.9656 27.4159C49.2201 26.8243 48.9466 26.1376 48.355 25.8831Z" fill="#F0F0F0"/>
<path d="M59.1119 32.3262C58.5686 32.0924 58.3174 31.4618 58.5512 30.9185L61.0919 25.0133C62.2589 22.3009 61.0006 19.1421 58.2882 17.9751C55.5757 16.808 52.417 18.0663 51.2499 20.7788L49.5561 24.7156C49.3224 25.2588 48.6917 25.51 48.1484 25.2763C47.6052 25.0426 47.354 24.4119 47.5877 23.8686L49.2815 19.9319C50.9161 16.1329 55.3361 14.3721 59.1351 16.0067C62.9341 17.6412 64.6948 22.0613 63.0603 25.8603L60.5195 31.7654C60.2858 32.3087 59.6552 32.5599 59.1119 32.3262Z" fill="#F0F0F0"/>
<path d="M23.166 29.9726L24.7047 29.3221L25.5474 31.3154L24.6206 31.7072L24.2371 32.6525L25.8485 36.4643L26.8436 36.868L29.0992 35.9145L29.4929 34.9442L27.5266 30.2932L28.5487 27.7382L31.8185 26.3559L34.3808 27.3955L36.6576 32.7809L35.618 35.3433L34.0618 36.0012L33.2191 34.0079L34.1633 33.6087L34.5394 32.6459L33.0019 29.0089L32.0492 28.6079L30.0209 29.4654L29.6447 30.4282L31.611 35.0793L30.5714 37.6417L27.0743 39.1201L24.4622 38.0603L22.1263 32.5349L23.166 29.9726Z" fill="#F0F0F0"/>
</g>
<defs>
<clipPath id="clip0_518_20027">
<rect width="53" height="53" fill="white" transform="translate(21.9332) rotate(23.2801)"/>
</clipPath>
</defs>
</svg>
