<svg width="65" height="46" viewBox="0 0 65 46" fill="none" xmlns="http://www.w3.org/2000/svg">
<path d="M63.8086 12.0996L53.0161 7.5995C48.9475 5.69514 43.6898 0.525165 43.6377 0.473173C43.3839 0.222886 43.0209 0.109633 42.6655 0.168678C42.3102 0.229134 42.0077 0.455642 41.8542 0.777065C40.0457 4.54971 34.7857 5.66814 34.6636 5.69514L1.29499 14.7188C0.865605 14.8357 0.549095 15.1921 0.491734 15.6252C0.432938 16.0587 0.645789 16.4849 1.02806 16.706L18.8733 27.0036C19.0446 27.1023 19.238 27.1533 19.433 27.1533C19.5389 27.1533 19.6465 27.1384 19.7505 27.1076L63.6937 14.142C64.1411 14.0104 64.4553 13.6175 64.4803 13.1596C64.5063 12.7018 64.2374 12.2782 63.8086 12.0996ZM19.5768 24.8876L4.40909 16.1346L35.1788 7.8111C35.4134 7.76434 40.4466 6.70838 43.0988 2.98592C44.905 4.65651 48.7585 8.01786 52.1096 9.58467L60.1223 12.9253L19.5768 24.8876Z" fill="#F0F0F0"/>
<path d="M63.0585 16.1976L19.5775 28.8328L2.14803 18.9273C1.62237 18.6274 0.94347 18.7991 0.634546 19.3088C0.325007 19.8188 0.501798 20.4762 1.02828 20.775L19.2892 31.1533L63.6928 18.2501C64.2783 18.0801 64.6109 17.4829 64.435 16.9156C64.2598 16.35 63.643 16.0307 63.0585 16.1976Z" fill="#F0F0F0"/>
<path d="M63.0585 21.1984L19.5775 33.8329L2.14803 23.9272C1.62237 23.6268 0.94347 23.7994 0.634546 24.3093C0.325007 24.8189 0.501798 25.4762 1.02828 25.7757L19.2892 36.1533L63.6928 23.2507C64.2783 23.0806 64.6109 22.4836 64.435 21.9162C64.2598 21.3504 63.643 21.0293 63.0585 21.1984Z" fill="#F0F0F0"/>
<path d="M63.0585 25.1978L19.5775 37.8331L2.14803 27.9272C1.62237 27.6268 0.94347 27.8004 0.634546 28.3091C0.325007 28.8187 0.501798 29.4762 1.02828 29.7755L19.2892 40.1533L63.6928 27.2501C64.2783 27.0806 64.6109 26.483 64.435 25.9156C64.2598 25.3506 63.643 25.0303 63.0585 25.1978Z" fill="#F0F0F0"/>
<path d="M63.0585 30.1981L19.5775 42.833L2.14803 32.9275C1.62237 32.627 0.94347 32.7997 0.634546 33.3095C0.325007 33.8191 0.501798 34.4764 1.02828 34.7757L19.2892 45.1533L63.6928 32.2504C64.2783 32.0809 64.6109 31.4833 64.435 30.9159C64.2598 30.3509 63.643 30.0296 63.0585 30.1981Z" fill="#F0F0F0"/>
</svg>
