<svg width="58" height="58" viewBox="0 0 58 58" fill="none" xmlns="http://www.w3.org/2000/svg">
<path d="M31.3938 46.1044C31.3689 45.8572 31.2469 45.63 31.0546 45.4726C30.8623 45.3153 30.6154 45.2407 30.3681 45.2654L24.2209 45.8794C23.9897 45.9027 23.7753 46.011 23.6194 46.1833C23.4635 46.3557 23.3772 46.5798 23.3772 46.8122V50.7929L17.4944 52.4729C17.2985 52.5289 17.1261 52.6472 17.0035 52.81C16.8809 52.9727 16.8146 53.171 16.8147 53.3747V56.1872C16.8147 56.4359 16.9135 56.6743 17.0893 56.8501C17.2651 57.026 17.5036 57.1247 17.7522 57.1247C18.0008 57.1247 18.2393 57.026 18.4151 56.8501C18.5909 56.6743 18.6897 56.4359 18.6897 56.1872V54.0816L24.5725 52.4016C24.7684 52.3456 24.9407 52.2272 25.0634 52.0645C25.186 51.9018 25.2523 51.7035 25.2522 51.4997V47.6607L30.5547 47.131C30.6772 47.1187 30.7961 47.0824 30.9045 47.0241C31.013 46.9658 31.1089 46.8868 31.1868 46.7915C31.2648 46.6962 31.3231 46.5864 31.3586 46.4685C31.3941 46.3506 31.4061 46.2269 31.3938 46.1044Z" fill="#F0F0F0"/>
<path d="M48.6503 36.9479L49.5784 24.0658L51.7975 23.3261C51.9698 23.2697 52.1221 23.1647 52.2359 23.0236C52.3497 22.8825 52.4202 22.7114 52.4388 22.5311L53.3491 13.4317L56.9256 8.96076C57.0026 8.86461 57.0598 8.75424 57.0941 8.63596C57.1284 8.51768 57.1391 8.39381 57.1255 8.27141C57.1119 8.14901 57.0744 8.03048 57.015 7.9226C56.9556 7.81471 56.8755 7.71958 56.7794 7.64263C56.6832 7.56569 56.5729 7.50843 56.4546 7.47414C56.3363 7.43985 56.2124 7.42919 56.09 7.44277C55.9676 7.45635 55.8491 7.4939 55.7412 7.55329C55.6333 7.61268 55.5382 7.69273 55.4613 7.78888L51.7113 12.4764C51.5983 12.6177 51.5286 12.7886 51.5106 12.9686L50.6331 21.7398L48.3972 22.4898C48.2214 22.5482 48.0669 22.6574 47.9531 22.8036C47.8393 22.9497 47.7713 23.1263 47.7578 23.3111L47.4119 28.1195C45.8445 24.0054 43.6175 20.174 40.8184 16.7758C41.0673 16.3752 41.2115 15.9186 41.2377 15.4477C41.2639 14.9769 41.1713 14.5071 40.9684 14.0814L41.7541 13.2967C42.4571 12.5935 42.852 11.6398 42.852 10.6454C42.852 9.65108 42.4571 8.69743 41.7541 7.9942C41.0393 7.31301 40.0897 6.93304 39.1023 6.93304C38.115 6.93304 37.1654 7.31301 36.4506 7.9942L35.6575 8.78732C35.1345 8.54665 34.5514 8.46803 33.9833 8.5616C33.4153 8.65516 32.8882 8.91663 32.47 9.31232L28.6544 13.1261C24.3849 9.29391 19.7999 5.82851 14.9481 2.7667C19.2672 2.9767 24.5753 5.11888 29.7334 8.81263C29.9357 8.95734 30.1872 9.01577 30.4325 8.97507C30.6779 8.93437 30.897 8.79787 31.0417 8.5956C31.1864 8.39333 31.2449 8.14186 31.2042 7.89651C31.1635 7.65116 31.027 7.43203 30.8247 7.28732C24.0513 2.43763 16.9141 0.124821 11.7447 1.09888C11.5571 1.13412 11.3847 1.22579 11.2506 1.36164C11.1165 1.49749 11.027 1.67104 10.9942 1.85909C10.9614 2.04714 10.9868 2.24073 11.0669 2.41398C11.1471 2.58722 11.2782 2.73187 11.4428 2.82857C17.1086 6.16977 22.4309 10.0617 27.3325 14.4479L27.1647 14.6148C26.7566 15.0263 26.4856 15.5539 26.3888 16.1253C26.292 16.6967 26.374 17.284 26.6238 17.807L17.4541 26.987C17.2783 27.1632 17.1797 27.4019 17.1799 27.6508C17.1802 27.8997 17.2793 28.1383 17.4555 28.314C17.6316 28.4898 17.8704 28.5884 18.1193 28.5882C18.3681 28.5879 18.6067 28.4888 18.7825 28.3126L27.8303 19.2554L30.4788 21.9048L5.94813 46.4373C5.59331 46.7809 5.11876 46.973 4.62485 46.973C4.13093 46.973 3.65638 46.7809 3.30157 46.4373C2.95063 46.0858 2.75353 45.6094 2.75353 45.1126C2.75353 44.6159 2.95063 44.1395 3.30157 43.7879L16.1266 30.9686C16.2161 30.8821 16.2875 30.7786 16.3367 30.6643C16.3858 30.5499 16.4117 30.4269 16.4127 30.3024C16.4138 30.1779 16.3901 30.0545 16.343 29.9392C16.2958 29.824 16.2262 29.7194 16.1382 29.6313C16.0502 29.5433 15.9455 29.4737 15.8303 29.4266C15.7151 29.3794 15.5916 29.3557 15.4671 29.3568C15.3426 29.3579 15.2196 29.3837 15.1052 29.4329C14.9909 29.482 14.8874 29.5534 14.8009 29.6429L1.975 42.4558C1.27342 43.1588 0.879395 44.1115 0.879395 45.1047C0.879395 46.0979 1.27342 47.0505 1.975 47.7536C2.32198 48.1042 2.73503 48.3826 3.19027 48.5725C3.64551 48.7625 4.1339 48.8603 4.62719 48.8603C5.12048 48.8603 5.60887 48.7625 6.06411 48.5725C6.51935 48.3826 6.9324 48.1042 7.27938 47.7536L31.9272 23.1067C32.4494 23.3624 33.0386 23.4479 33.6119 23.3512C34.1852 23.2545 34.7137 22.9804 35.1231 22.5676L35.2872 22.4026C36.5406 23.8089 37.7388 25.2067 38.8253 26.5783C38.9008 26.6773 38.9953 26.7603 39.1033 26.8224C39.2112 26.8845 39.3304 26.9245 39.454 26.94C39.5776 26.9555 39.703 26.9462 39.8229 26.9127C39.9429 26.8792 40.055 26.8222 40.1526 26.7449C40.2503 26.6676 40.3315 26.5716 40.3917 26.4626C40.4518 26.3535 40.4896 26.2336 40.5029 26.1098C40.5162 25.986 40.5047 25.8607 40.4691 25.7414C40.4334 25.6221 40.3743 25.5111 40.2953 25.4148C39.1703 23.987 37.9206 22.5311 36.6156 21.0751L39.5313 18.1586C43.9534 23.7226 46.6422 29.6589 46.9441 34.5826L46.9319 34.7523C45.565 32.5783 44.1194 30.4501 42.6006 28.4101C42.5271 28.3113 42.4349 28.2279 42.3291 28.1646C42.2234 28.1014 42.1063 28.0597 41.9844 28.0417C41.7382 28.0055 41.4878 28.0686 41.2881 28.217C41.0885 28.3654 40.956 28.5871 40.9197 28.8333C40.8835 29.0794 40.9466 29.3299 41.095 29.5295C42.7347 31.7383 44.2825 34.0558 45.7459 36.4192L34.3919 39.3414C34.2168 39.3865 34.0585 39.4814 33.9361 39.6144C33.8136 39.7475 33.7323 39.9132 33.7019 40.0914L32.7644 45.7164C32.7237 45.9614 32.7819 46.2125 32.9262 46.4147C33.0705 46.6168 33.2891 46.7534 33.5341 46.7945C33.585 46.805 33.6368 46.8109 33.6888 46.8123C33.9105 46.812 34.125 46.7331 34.294 46.5896C34.4631 46.4461 34.5758 46.2473 34.6122 46.0286L35.4494 41.0064L47.9481 37.7879C48.1384 37.7392 48.3086 37.6318 48.4346 37.4811C48.5606 37.3304 48.636 37.1439 48.6503 36.9479ZM40.4238 9.31232C40.7753 9.66394 40.9727 10.1408 40.9727 10.6379C40.9727 11.1351 40.7753 11.612 40.4238 11.9636L39.7609 12.6264L37.1088 9.97513L37.7716 9.31232C38.1288 8.97117 38.6037 8.7808 39.0977 8.7808C39.5916 8.7808 40.0666 8.97117 40.4238 9.31232ZM32.47 21.2448L28.4931 17.267C28.406 17.1799 28.3368 17.0765 28.2896 16.9627C28.2425 16.8489 28.2182 16.7269 28.2182 16.6037C28.2182 16.4805 28.2425 16.3585 28.2896 16.2447C28.3368 16.1309 28.406 16.0275 28.4931 15.9404L33.7966 10.6379C33.9724 10.4622 34.2108 10.3635 34.4594 10.3635C34.708 10.3635 34.9464 10.4622 35.1222 10.6379L39.1 14.6148C39.1872 14.7019 39.2563 14.8053 39.3035 14.9191C39.3507 15.0329 39.375 15.1549 39.375 15.2781C39.375 15.4013 39.3507 15.5233 39.3035 15.6371C39.2563 15.7509 39.1872 15.8543 39.1 15.9414L33.7966 21.2448C33.7095 21.332 33.6061 21.4011 33.4923 21.4483C33.3785 21.4955 33.2565 21.5198 33.1333 21.5198C33.0101 21.5198 32.8881 21.4955 32.7743 21.4483C32.6605 21.4011 32.5571 21.332 32.47 21.2448Z" fill="#F0F0F0"/>
<path d="M56.5363 41.254L51.8488 39.379C51.6783 39.3109 51.4916 39.2942 51.3118 39.3312C51.1319 39.3682 50.9669 39.4572 50.8372 39.5872L46.1497 44.2747C46.0354 44.3891 45.9525 44.5311 45.9093 44.687C45.8661 44.8429 45.864 45.0074 45.9032 45.1643L46.5885 47.9065L41.0572 48.6968C40.8849 48.7215 40.7228 48.7937 40.5892 48.9053C40.4556 49.0169 40.3557 49.1635 40.3007 49.3287L39.4335 51.9312L35.84 55.5247C35.7505 55.6111 35.6791 55.7146 35.6299 55.829C35.5808 55.9433 35.555 56.0664 35.5539 56.1908C35.5528 56.3153 35.5765 56.4388 35.6236 56.554C35.6708 56.6692 35.7404 56.7739 35.8284 56.8619C35.9164 56.9499 36.0211 57.0195 36.1363 57.0667C36.2515 57.1138 36.375 57.1375 36.4995 57.1365C36.624 57.1354 36.747 57.1095 36.8614 57.0604C36.9757 57.0112 37.0792 56.9398 37.1657 56.8503L40.9157 53.1003C41.0187 52.9974 41.0964 52.8719 41.1425 52.7337L41.8925 50.4706L47.6919 49.6428L46.8594 52.1412C46.8163 52.2706 46.8019 52.4079 46.8173 52.5434C46.8327 52.6789 46.8774 52.8095 46.9485 52.9259L49.235 56.6759C49.3122 56.8023 49.4181 56.9086 49.5442 56.9862C49.6704 57.0638 49.8131 57.1104 49.9607 57.1222H50.0357C50.1713 57.1222 50.3053 57.0928 50.4285 57.036C50.5517 56.9792 50.6611 56.8963 50.7491 56.7931L53.15 53.9806C53.2944 53.8118 53.3742 53.5971 53.375 53.375V49.625C53.375 49.3763 53.2763 49.1379 53.1005 48.9621C52.9246 48.7862 52.6862 48.6875 52.4375 48.6875H48.6875H48.6679C48.6745 48.6108 48.6716 48.5337 48.6594 48.4578L47.8504 45.2225L51.726 41.3478L55.8388 42.9931C56.0698 43.0856 56.3281 43.0825 56.5568 42.9846C56.7855 42.8867 56.966 42.7019 57.0585 42.4709C57.151 42.2399 57.1479 41.9816 57.05 41.7529C56.9521 41.5242 56.7673 41.3437 56.5363 41.2512V41.254ZM49.3635 50.5625H51.5V53.029L50.1632 54.5937L48.7813 52.3212L49.3635 50.5625Z" fill="#F0F0F0"/>
<path d="M31.5401 48.9622C31.442 48.8641 31.3234 48.789 31.1929 48.7423C31.0623 48.6956 30.923 48.6784 30.785 48.692C30.647 48.7057 30.5137 48.7497 30.3948 48.8211C30.2759 48.8925 30.1742 48.9893 30.0973 49.1047L28.2223 51.9172C28.1146 52.0786 28.0597 52.2694 28.0651 52.4633C28.0704 52.6573 28.1358 52.8448 28.2523 53L31.0188 56.6562C31.1062 56.7726 31.2194 56.8672 31.3496 56.9322C31.4797 56.9973 31.6233 57.0312 31.7688 57.0312C31.7941 57.0312 31.8204 57.0312 31.8457 57.0312C32.0025 57.0177 32.1535 56.965 32.2845 56.8778C32.4156 56.7906 32.5226 56.6719 32.5957 56.5325L34.5166 52.8762C34.6096 52.6992 34.6436 52.4971 34.6136 52.2994C34.5835 52.1018 34.4911 51.9189 34.3498 51.7775L31.5401 48.9622ZM31.6254 54.3518L30.1516 52.4037L31.0226 51.0959L32.5385 52.6128L31.6254 54.3518Z" fill="#F0F0F0"/>
<path d="M26.1899 43.0621C26.2667 43.062 26.3432 43.0526 26.4177 43.034L30.1677 42.0965C30.3176 42.0589 30.456 41.9848 30.5704 41.8809C30.6848 41.7769 30.7717 41.6462 30.8234 41.5005C30.8751 41.3549 30.8899 41.1986 30.8666 41.0458C30.8433 40.893 30.7826 40.7483 30.6899 40.6246L27.8774 36.8746C27.7336 36.6828 27.5218 36.5534 27.2855 36.513C27.0492 36.4725 26.8065 36.5241 26.607 36.6571L23.7945 38.5321C23.6921 38.6004 23.6041 38.6883 23.5356 38.7906C23.4671 38.8929 23.4195 39.0077 23.3954 39.1285C23.3712 39.2492 23.3711 39.3735 23.3951 39.4943C23.419 39.6151 23.4665 39.73 23.5349 39.8324L25.4099 42.6449C25.4955 42.7733 25.6115 42.8785 25.7476 42.9513C25.8836 43.0241 26.0356 43.0621 26.1899 43.0621ZM26.9099 38.7084L28.3461 40.6246L26.607 41.0587L25.6189 39.5755L26.9099 38.7084Z" fill="#F0F0F0"/>
<path d="M20.4692 49.1064C20.5463 48.9502 20.5784 48.7757 20.5618 48.6023C20.5453 48.4289 20.4808 48.2636 20.3755 48.1248L17.563 44.3748C17.432 44.1984 17.2432 44.0735 17.0295 44.0221C16.8158 43.9707 16.5909 43.996 16.3939 44.0936L12.6439 45.9686C12.4969 46.0419 12.3718 46.1526 12.281 46.2896C12.1903 46.4266 12.1371 46.585 12.1268 46.7489C12.1166 46.9129 12.1496 47.0767 12.2226 47.2239C12.2956 47.3711 12.406 47.4965 12.5427 47.5876L15.3552 49.4626C15.5089 49.5667 15.6899 49.6232 15.8755 49.6248H19.6255C19.8005 49.6258 19.9723 49.5777 20.1214 49.4861C20.2705 49.3945 20.391 49.263 20.4692 49.1064ZM16.1567 47.7498L14.9239 46.9286L16.5299 46.1261L17.7505 47.7498H16.1567Z" fill="#F0F0F0"/>
<path d="M54.0389 28.3372C53.9408 28.2391 53.8223 28.164 53.6917 28.1173C53.5611 28.0706 53.4218 28.0534 53.2838 28.067C53.1458 28.0807 53.0125 28.1247 52.8936 28.1961C52.7747 28.2674 52.6731 28.3643 52.5961 28.4797L50.7211 31.2922C50.6177 31.4465 50.5625 31.6281 50.5625 31.8139C50.5625 31.9996 50.6177 32.1812 50.7211 32.3356L52.5501 35.0543C52.6263 35.1676 52.7262 35.2628 52.843 35.3334C52.9597 35.404 53.0905 35.4482 53.2261 35.4631C53.3619 35.4783 53.4994 35.4636 53.629 35.42C53.7585 35.3764 53.877 35.3051 53.9761 35.2109L56.8336 32.4921C56.9243 32.4059 56.9968 32.3025 57.0468 32.1878C57.0969 32.0731 57.1235 31.9496 57.1251 31.8245C57.1267 31.6993 57.1032 31.5752 57.056 31.4593C57.0088 31.3434 56.9389 31.2381 56.8505 31.1497L54.0389 28.3372ZM53.4886 33.0884L52.6261 31.8125L53.5176 30.4728L54.8423 31.7975L53.4886 33.0884Z" fill="#F0F0F0"/>
<path d="M38.3772 44C38.895 44 39.3147 43.5803 39.3147 43.0625C39.3147 42.5447 38.895 42.125 38.3772 42.125C37.8594 42.125 37.4397 42.5447 37.4397 43.0625C37.4397 43.5803 37.8594 44 38.3772 44Z" fill="#F0F0F0"/>
<path d="M33.6897 29C34.2075 29 34.6272 28.5803 34.6272 28.0625C34.6272 27.5447 34.2075 27.125 33.6897 27.125C33.1719 27.125 32.7522 27.5447 32.7522 28.0625C32.7522 28.5803 33.1719 29 33.6897 29Z" fill="#F0F0F0"/>
<path d="M44.0022 53.375C44.52 53.375 44.9397 52.9553 44.9397 52.4375C44.9397 51.9197 44.52 51.5 44.0022 51.5C43.4844 51.5 43.0647 51.9197 43.0647 52.4375C43.0647 52.9553 43.4844 53.375 44.0022 53.375Z" fill="#F0F0F0"/>
<path d="M37.4397 49.625C37.9575 49.625 38.3772 49.2053 38.3772 48.6875C38.3772 48.1697 37.9575 47.75 37.4397 47.75C36.9219 47.75 36.5022 48.1697 36.5022 48.6875C36.5022 49.2053 36.9219 49.625 37.4397 49.625Z" fill="#F0F0F0"/>
<path d="M44.0022 43.0625C44.52 43.0625 44.9397 42.6428 44.9397 42.125C44.9397 41.6072 44.52 41.1875 44.0022 41.1875C43.4844 41.1875 43.0647 41.6072 43.0647 42.125C43.0647 42.6428 43.4844 43.0625 44.0022 43.0625Z" fill="#F0F0F0"/>
<path d="M44.9397 14C45.4575 14 45.8772 13.5803 45.8772 13.0625C45.8772 12.5447 45.4575 12.125 44.9397 12.125C44.4219 12.125 44.0022 12.5447 44.0022 13.0625C44.0022 13.5803 44.4219 14 44.9397 14Z" fill="#F0F0F0"/>
<path d="M31.8147 34.625C32.3325 34.625 32.7522 34.2053 32.7522 33.6875C32.7522 33.1697 32.3325 32.75 31.8147 32.75C31.2969 32.75 30.8772 33.1697 30.8772 33.6875C30.8772 34.2053 31.2969 34.625 31.8147 34.625Z" fill="#F0F0F0"/>
<path d="M52.4397 45.875C52.9575 45.875 53.3772 45.4553 53.3772 44.9375C53.3772 44.4197 52.9575 44 52.4397 44C51.9219 44 51.5022 44.4197 51.5022 44.9375C51.5022 45.4553 51.9219 45.875 52.4397 45.875Z" fill="#F0F0F0"/>
<path d="M34.6551 34.3978C34.5949 34.6389 34.633 34.8939 34.7607 35.107C34.8885 35.32 35.0957 35.4736 35.3366 35.5341L39.0866 36.4716C39.1612 36.49 39.2377 36.4995 39.3145 36.4997C39.5431 36.4994 39.7638 36.4156 39.935 36.264C40.1062 36.1124 40.216 35.9035 40.2439 35.6765C40.2718 35.4495 40.2158 35.2202 40.0864 35.0317C39.957 34.8432 39.7631 34.7084 39.5413 34.6528L35.7913 33.7153C35.5501 33.6552 35.295 33.6934 35.0819 33.8213C34.8688 33.9493 34.7153 34.1567 34.6551 34.3978Z" fill="#F0F0F0"/>
<path d="M44.9679 17.0394L45.9054 20.7894C45.956 20.9923 46.073 21.1725 46.2377 21.3013C46.4025 21.43 46.6056 21.5 46.8147 21.5001C46.8918 21.4999 46.9686 21.4905 47.0435 21.4719C47.2845 21.4115 47.4916 21.2579 47.6194 21.0448C47.7472 20.8318 47.7852 20.5767 47.7251 20.3357L46.7876 16.5857C46.7601 16.4638 46.7086 16.3486 46.636 16.2469C46.5635 16.1452 46.4713 16.0591 46.3649 15.9935C46.2586 15.9279 46.1402 15.8843 46.0167 15.8651C45.8933 15.8459 45.7672 15.8516 45.646 15.8819C45.5248 15.9121 45.4108 15.9663 45.3108 16.0412C45.2108 16.1161 45.1268 16.2103 45.0637 16.3181C45.0006 16.426 44.9597 16.5453 44.9434 16.6692C44.9271 16.7931 44.9358 16.9189 44.9688 17.0394H44.9679Z" fill="#F0F0F0"/>
<path d="M38.7945 32.5921C38.8969 32.6605 39.0118 32.7079 39.1326 32.7319C39.2534 32.7558 39.3777 32.7557 39.4984 32.7316C39.6192 32.7075 39.734 32.6598 39.8363 32.5913C39.9387 32.5228 40.0265 32.4349 40.0948 32.3324C40.1631 32.23 40.2106 32.1151 40.2346 31.9943C40.2585 31.8736 40.2584 31.7493 40.2343 31.6285C40.2102 31.5078 40.1625 31.3929 40.094 31.2906C40.0255 31.1883 39.9376 31.1005 39.8351 31.0321L37.0226 29.1571C36.8158 29.0191 36.5625 28.969 36.3187 29.0177C36.0748 29.0664 35.8603 29.21 35.7223 29.4168C35.5843 29.6237 35.5342 29.8769 35.5829 30.1208C35.6316 30.3646 35.7751 30.5791 35.982 30.7171L38.7945 32.5921Z" fill="#F0F0F0"/>
</svg>
