<svg width="27" height="28" viewBox="0 0 27 28" fill="none" xmlns="http://www.w3.org/2000/svg">
<g opacity="0.7">
<path opacity="0.7" d="M0.000121855 27.1389L0.000122208 19.0885C0.000122214 18.939 0.0500194 18.8144 0.149826 18.6898L4.79085 14.054L0.149827 9.41816C0.149827 9.41816 0.000122642 9.16891 0.000122648 9.01937L0.000123 0.96903C0.00012301 0.744717 0.124894 0.545297 0.324508 0.470526C0.524121 0.395755 0.773615 0.420686 0.923325 0.595152L14.023 13.6801C14.2475 13.9044 14.2475 14.2284 14.023 14.4527L0.923323 27.5376C0.773614 27.6872 0.52412 27.737 0.324507 27.6623C0.124893 27.5875 0.000121844 27.3881 0.000121854 27.1638L0.000121855 27.1389ZM1.098 19.3129L1.098 25.8179L12.8752 14.054L1.09801 2.28998L1.098 8.79507L5.98852 13.6801C6.18814 13.9044 6.18814 14.2284 5.98852 14.4527L1.098 19.3129Z" fill="#FF7C1E"/>
</g>
<g opacity="0.5">
<path opacity="0.5" d="M13.6464 0.993652L13.6464 9.04398L18.6867 14.0537L13.6464 19.0882L13.6464 27.1386L26.7461 14.0537L13.6464 0.993652Z" fill="#FF7C1E"/>
</g>
</svg>
