<svg width="323" height="204" viewBox="0 0 323 204" fill="none" xmlns="http://www.w3.org/2000/svg">
<path d="M0.0113564 154.99C5.58167 154.973 11.152 154.95 16.7166 155.013C22.5197 155.133 28.4648 157.087 32.6156 161.286C36.4086 164.852 38.5322 169.917 39.1001 175.05C39.6395 179.967 39.3783 185.071 37.6692 189.749C35.8351 194.808 31.9683 199.103 27.085 201.365C23.3431 203.137 19.1582 203.747 15.0472 203.701C10.0391 203.678 5.03088 203.667 0.0227128 203.616C-0.0056782 191.834 0.0340692 180.052 0 168.276C2.22585 168.225 4.45171 168.242 6.68324 168.236C6.71731 177.899 6.68324 187.567 6.68324 197.229C12.3103 197.121 18.3349 198.203 23.5816 195.628C29.1575 192.443 32.661 185.994 32.4452 179.568C32.5872 171.022 26.1595 162.077 17.3071 161.388C11.5722 161.183 5.82583 161.451 0.085173 161.422C0.0397474 159.274 0.0227128 157.132 0.0113564 154.99Z" fill="white"/>
<path d="M46.1971 154.83C56.4577 154.83 66.7182 154.813 76.9787 154.83C76.99 156.688 76.9787 158.545 76.9616 160.402C68.8986 160.442 60.8355 160.334 52.7725 160.453C52.8066 165.222 52.8179 169.996 52.7611 174.765C60.8299 174.924 68.9043 174.788 76.9787 174.822C76.9503 176.713 77.0525 178.61 76.8651 180.502C68.8475 180.388 60.8242 180.428 52.8009 180.399C52.7895 184.074 52.7839 187.749 52.8009 191.423C50.6091 191.435 48.423 191.423 46.2312 191.423C46.1915 179.226 46.2142 167.022 46.2028 154.825L46.1971 154.83Z" fill="white"/>
<path d="M95.3344 155.378C101.932 154.369 108.599 155.474 115.197 155.924C115.049 158.072 114.884 160.22 114.742 162.374C109.013 161.884 103.204 161.166 97.4864 162.129C95.0789 162.619 92.1943 163.633 91.4789 166.293C90.4454 170.014 93.4038 173.945 97.1003 174.531C97.0094 176.656 97.2706 178.81 96.9413 180.924C93.3811 179.699 89.571 178.616 86.7489 175.996C83.5351 172.617 83.166 167.302 84.7616 163.086C86.431 158.722 90.8713 156.038 95.3344 155.378Z" fill="white"/>
<path d="M123.551 154.916C137.241 154.773 150.937 154.973 164.627 154.808C164.769 156.699 164.695 158.596 164.706 160.493C150.999 160.51 137.298 160.493 123.596 160.493C123.573 158.63 123.585 156.773 123.551 154.916Z" fill="white"/>
<path d="M198.767 155.098C204.882 155.559 210.861 158.402 214.7 163.279C219.441 169.022 220.412 176.969 219.441 184.153C218.618 190.352 215.25 196.26 209.987 199.707C206.676 202.008 202.702 203.079 198.744 203.552C198.732 201.558 198.732 199.564 198.721 197.576C202.758 196.847 206.926 195.217 209.379 191.742C213.132 186.985 213.677 180.53 212.803 174.719C212.036 170.298 209.72 165.956 205.893 163.484C203.746 162.06 201.22 161.404 198.721 160.937C198.71 158.989 198.693 157.04 198.767 155.098Z" fill="white"/>
<path d="M226.667 154.825C232.004 154.831 237.342 154.791 242.685 154.848C247.312 154.939 252.338 156.278 255.33 160.078C258.43 164.106 258.657 169.706 257.476 174.48C256.415 178.879 252.622 182.075 248.374 183.22C251.361 190.074 254.671 196.785 257.766 203.593C255.347 203.593 252.934 203.565 250.515 203.616C247.233 197.138 244.57 190.347 241.163 183.943C236.348 184.08 231.533 183.949 226.718 184.012C226.621 174.281 226.689 164.55 226.667 154.825ZM233.253 160.779C233.327 166.573 233.27 172.361 233.282 178.155C237.688 177.87 242.367 178.941 246.557 177.158C251.969 174.697 252.673 166.322 248.181 162.647C246.211 160.944 243.48 160.682 240.993 160.676C238.409 160.716 235.825 160.562 233.253 160.779Z" fill="white"/>
<path d="M264.973 154.961C267.176 154.961 269.385 154.961 271.599 154.955C271.622 161.513 271.599 168.07 271.611 174.622C269.379 174.582 267.142 174.736 264.916 174.548C265.024 168.019 264.933 161.49 264.973 154.961Z" fill="white"/>
<path d="M287.482 179.966C290.657 171.58 293.785 163.171 297.067 154.825C299.554 154.876 302.041 154.773 304.528 154.893C307.646 163.239 310.82 171.574 314.017 179.898C311.882 180.035 309.747 179.955 307.612 179.972C305.369 173.905 303.143 167.837 300.934 161.764C300.52 162.077 300.247 162.487 300.105 162.989C298.044 168.657 295.983 174.326 293.87 179.972C291.741 179.972 289.612 179.972 287.482 179.972V179.966Z" fill="white"/>
<path d="M177.422 162.459C181.118 158.232 186.53 155.674 192.088 155.218C192.123 157.155 192.35 159.109 192.06 161.041C188.534 161.707 185.059 163.268 182.719 166.071C179.148 170.19 178.046 175.916 178.421 181.232C178.728 185.937 180.556 190.717 184.15 193.874C186.376 195.828 189.221 196.848 192.071 197.469C192.106 199.457 192.105 201.451 192.094 203.445C186.126 202.847 180.272 200.015 176.57 195.207C173.299 191.116 171.829 185.863 171.619 180.69C171.34 174.213 172.93 167.325 177.422 162.459Z" fill="white"/>
<path d="M140.797 167.188C143.051 167.239 145.317 167.063 147.565 167.302C147.401 179.42 147.531 191.549 147.48 203.673C145.26 203.673 143.04 203.661 140.825 203.684C140.786 191.521 140.814 179.357 140.797 167.188Z" fill="white"/>
<path d="M103.662 176.143C107.699 177.249 111.867 178.963 114.479 182.405C117.244 186.028 117.21 191.076 115.785 195.235C114.513 198.824 111.276 201.439 107.654 202.407C99.9426 204.658 91.9137 202.789 84.0664 202.59C84.1913 200.419 84.339 198.254 84.4866 196.089C91.4878 196.528 98.8127 198.34 105.621 195.787C109.005 194.648 110.731 190.335 109.113 187.162C108.125 184.906 105.916 183.538 103.707 182.701C103.616 180.513 103.668 178.325 103.662 176.143Z" fill="white"/>
<path d="M264.967 181.208C267.175 181.208 269.384 181.208 271.599 181.208C271.616 188.683 271.61 196.158 271.599 203.632C269.384 203.638 267.17 203.644 264.961 203.638C264.961 196.158 264.961 188.683 264.961 181.203L264.967 181.208Z" fill="white"/>
<path d="M278.482 203.576C280.737 197.582 283.036 191.606 285.302 185.613C295.568 185.573 305.834 185.653 316.1 185.59C318.502 191.538 320.7 197.571 322.999 203.564C320.694 203.519 318.383 203.673 316.089 203.451C314.749 199.297 313.188 195.218 311.768 191.093C304.454 191.048 297.141 191.093 289.833 191.082C288.294 195.229 286.886 199.428 285.359 203.582C283.065 203.57 280.771 203.576 278.482 203.576Z" fill="white"/>
<path d="M226.65 190.735C228.859 190.581 231.079 190.666 233.294 190.689C233.248 195.013 233.305 199.332 233.271 203.656C231.074 203.656 228.882 203.656 226.69 203.656C226.662 199.349 226.719 195.042 226.65 190.735Z" fill="white"/>
<path d="M46.2893 198.078C56.4874 198.107 66.6797 198.129 76.8721 198.061C77.0197 199.918 76.963 201.787 76.9573 203.65C66.7138 203.656 56.4647 203.65 46.2212 203.639C46.2042 201.781 46.1758 199.924 46.2893 198.078Z" fill="white"/>
<path fill-rule="evenodd" clip-rule="evenodd" d="M161.182 0.00927734L214.227 30.8121V92.0456L161.177 122.729L108.127 92.0456V30.6954L161.182 0.00927734ZM118.494 36.6753V56.2004H156.02V14.9709L118.494 36.6753ZM166.387 15.0193V56.2004H203.861V36.78L166.387 15.0193ZM203.861 66.5672H181.147L203.861 79.2287V66.5672ZM199.431 88.6279L166.387 70.2076V107.74L199.431 88.6279ZM156.02 107.77V66.5672H118.494V86.0657L156.02 107.77Z" fill="white"/>
</svg>
