<svg width="294" height="170" viewBox="0 0 294 170" fill="none" xmlns="http://www.w3.org/2000/svg">
<g clip-path="url(#clip0_312_2)">
<path d="M146.207 0.00844408C146.918 -0.0906166 147.289 0.707083 147.794 1.08247C150.32 3.73626 153.201 6.06679 155.531 8.89263C166.169 27.4952 176.786 46.1134 187.419 64.7212C191.222 71.5407 195.299 78.2247 198.928 85.1381C183.538 70.3676 168.225 55.5085 152.871 40.6911C146.934 42.3804 141.058 44.3355 135.074 45.8475C138.744 30.5609 142.481 15.2846 146.207 0.00844408V0.00844408Z" fill="#F0F0F0"/>
<path d="M92.2951 88.2935C106.792 62.66 121.304 37.0369 135.893 11.4609C131.396 30.9917 126.601 50.4546 121.992 69.9592C121.704 71.4797 120.96 73.0315 121.278 74.5937C125.534 78.9356 130.036 83.0267 134.301 87.353C119.286 91.8151 104.266 96.2928 89.2305 100.692C90.2623 96.5645 91.0323 92.348 92.2951 88.2935V88.2935Z" fill="#F0F0F0"/>
<path d="M150.523 48.353C151.178 48.0895 151.6 48.8747 152.069 49.1846C156.222 53.1878 160.449 57.1084 164.545 61.1632C163.051 67.1189 161.682 73.116 160.085 79.0459C154.119 80.9364 148.061 82.6049 142.033 84.3198C137.556 80.0221 132.945 75.8692 128.525 71.5147C129.993 65.4453 131.393 59.3501 133.049 53.3324C138.905 51.7828 144.677 49.9336 150.523 48.353V48.353Z" fill="#F0F0F0"/>
<path d="M169.658 66.3096C181.181 77.2299 192.415 88.4767 203.84 99.5129C199.689 100.661 195.621 102.177 191.419 103.099C164.041 103.183 136.663 103.125 109.284 103.135C107.503 103.178 105.722 103.125 103.967 102.825C111.148 101.029 118.18 98.6547 125.299 96.617C138.609 92.6679 151.908 88.6505 165.233 84.7541C166.808 78.6305 168.238 72.47 169.658 66.3096V66.3096Z" fill="#F0F0F0"/>
<path d="M0.0103948 125.268C5.10907 125.253 10.2077 125.232 15.3012 125.289C20.613 125.397 26.0547 127.17 29.854 130.979C33.3259 134.214 35.2697 138.808 35.7895 143.465C36.2832 147.925 36.0441 152.556 34.4797 156.799C32.8009 161.388 29.2615 165.285 24.7917 167.336C21.3666 168.944 17.5361 169.497 13.7732 169.455C9.18904 169.435 4.60492 169.424 0.0207897 169.378C-0.00519742 158.69 0.0311845 148.003 0 137.32C2.03739 137.274 4.07478 137.289 6.11737 137.284C6.14855 146.049 6.11737 154.819 6.11737 163.584C11.268 163.486 16.7825 164.468 21.5849 162.132C26.6888 159.243 29.8956 153.393 29.6981 147.563C29.828 139.811 23.9445 131.697 15.8417 131.072C10.5923 130.886 5.33256 131.129 0.0779613 131.103C0.036382 129.154 0.0207897 127.211 0.0103948 125.268V125.268Z" fill="#F0F0F0"/>
<path d="M41.75 125.258C51.0265 125.258 60.303 125.243 69.5795 125.258C69.5897 126.961 69.5795 128.664 69.5641 130.367C62.2743 130.404 54.9845 130.304 47.6948 130.414C47.7256 134.786 47.7358 139.164 47.6845 143.536C54.9794 143.683 62.2794 143.557 69.5795 143.588C69.5538 145.323 69.6462 147.062 69.4768 148.797C62.2281 148.692 54.9743 148.729 47.7204 148.703C47.7102 152.072 47.705 155.441 47.7204 158.811C45.7388 158.821 43.7624 158.811 41.7808 158.811C41.7449 147.626 41.7654 136.437 41.7551 125.253L41.75 125.258Z" fill="#F0F0F0"/>
<path d="M86.6348 125.628C92.6641 124.705 98.7557 125.716 104.785 126.128C104.65 128.092 104.5 130.057 104.37 132.026C99.1345 131.578 93.8264 130.922 88.6013 131.802C86.4013 132.25 83.7654 133.178 83.1116 135.611C82.1673 139.014 84.8706 142.609 88.2485 143.145C88.1655 145.089 88.4041 147.059 88.1032 148.992C84.8498 147.871 81.3682 146.881 78.7894 144.485C75.8525 141.395 75.5153 136.533 76.9733 132.678C78.4988 128.686 82.5564 126.232 86.6348 125.628Z" fill="#F0F0F0"/>
<path d="M112.152 125.345C124.676 125.222 137.205 125.394 149.728 125.251C149.858 126.883 149.791 128.52 149.801 130.156C137.262 130.171 124.728 130.156 112.194 130.156C112.173 128.549 112.184 126.947 112.152 125.345V125.345Z" fill="#F0F0F0"/>
<path d="M180.149 125.251C185.614 125.672 190.957 128.266 194.388 132.715C198.625 137.954 199.492 145.205 198.625 151.759C197.889 157.415 194.88 162.805 190.176 165.949C187.218 168.049 183.666 169.026 180.129 169.458C180.119 167.638 180.119 165.819 180.109 164.005C183.717 163.34 187.441 161.853 189.633 158.683C192.987 154.343 193.474 148.454 192.693 143.152C192.008 139.119 189.938 135.158 186.518 132.902C184.599 131.603 182.341 131.005 180.109 130.579C180.099 128.801 180.083 127.024 180.149 125.251V125.251Z" fill="#F0F0F0"/>
<path d="M205.481 125.259C210.34 125.264 215.199 125.228 220.064 125.279C224.277 125.362 228.852 126.575 231.576 130.017C234.398 133.666 234.605 138.739 233.53 143.064C232.563 147.048 229.11 149.944 225.243 150.981C227.963 157.19 230.976 163.27 233.794 169.437C231.591 169.437 229.394 169.411 227.192 169.458C224.204 163.589 221.78 157.438 218.678 151.637C214.295 151.76 209.911 151.642 205.527 151.699C205.439 142.884 205.501 134.069 205.481 125.259V125.259ZM211.477 130.652C211.544 135.901 211.493 141.144 211.503 146.393C215.515 146.135 219.774 147.105 223.589 145.49C228.516 143.26 229.157 135.674 225.068 132.345C223.274 130.802 220.787 130.564 218.523 130.559C216.171 130.595 213.819 130.456 211.477 130.652V130.652Z" fill="#F0F0F0"/>
<path d="M240.728 125.256C242.614 125.256 244.505 125.256 246.4 125.251C246.42 131.25 246.4 137.248 246.41 143.241C244.5 143.205 242.585 143.346 240.68 143.174C240.772 137.201 240.694 131.229 240.728 125.256V125.256Z" fill="#F0F0F0"/>
<path d="M261.145 148.161C263.984 140.519 266.784 132.857 269.72 125.251C271.945 125.298 274.171 125.204 276.396 125.314C279.185 132.919 282.025 140.514 284.885 148.098C282.975 148.223 281.065 148.15 279.154 148.166C277.148 142.637 275.156 137.108 273.18 131.574C272.809 131.86 272.565 132.234 272.438 132.69C270.594 137.856 268.75 143.021 266.86 148.166C264.955 148.166 263.05 148.166 261.145 148.166V148.161Z" fill="#F0F0F0"/>
<path d="M160.869 131.889C164.244 128.014 169.186 125.669 174.263 125.251C174.294 127.027 174.501 128.818 174.237 130.588C171.017 131.199 167.843 132.63 165.707 135.2C162.445 138.975 161.439 144.224 161.781 149.096C162.061 153.41 163.731 157.791 167.014 160.684C169.046 162.475 171.644 163.41 174.247 163.979C174.278 165.802 174.278 167.63 174.268 169.458C168.818 168.909 163.472 166.314 160.091 161.906C157.104 158.157 155.761 153.342 155.569 148.6C155.315 142.662 156.767 136.348 160.869 131.889Z" fill="#F0F0F0"/>
<path d="M127.707 135.908C129.888 135.955 132.08 135.792 134.256 136.012C134.097 147.152 134.223 158.302 134.174 169.447C132.025 169.447 129.877 169.437 127.734 169.458C127.696 158.276 127.724 147.094 127.707 135.908V135.908Z" fill="#F0F0F0"/>
<path d="M93.8074 144.08C97.4489 145.072 101.208 146.611 103.564 149.7C106.058 152.952 106.028 157.482 104.742 161.215C103.595 164.436 100.676 166.783 97.4079 167.652C90.4528 169.672 83.2109 167.995 76.1328 167.816C76.2455 165.868 76.3786 163.925 76.5118 161.982C82.8267 162.375 89.4336 164.001 95.5744 161.711C98.6269 160.688 100.184 156.817 98.7242 153.969C97.833 151.944 95.8407 150.717 93.8484 149.965C93.7665 148.002 93.8126 146.038 93.8074 144.08V144.08Z" fill="#F0F0F0"/>
<path d="M240.685 148.997C242.588 148.997 244.492 148.997 246.401 148.997C246.416 155.815 246.411 162.632 246.401 169.45C244.492 169.455 242.583 169.461 240.68 169.455C240.68 162.632 240.68 155.815 240.68 148.992L240.685 148.997Z" fill="#F0F0F0"/>
<path d="M252.959 169.452C254.99 163.998 257.062 158.56 259.104 153.106C268.354 153.069 277.605 153.142 286.856 153.085C289.02 158.498 291 163.988 293.072 169.442C290.995 169.401 288.912 169.541 286.845 169.338C285.638 165.559 284.231 161.847 282.952 158.093C276.362 158.052 269.772 158.093 263.187 158.083C261.8 161.857 260.531 165.678 259.155 169.458C257.088 169.447 255.021 169.452 252.959 169.452V169.452Z" fill="#F0F0F0"/>
<path d="M205.479 157.257C207.384 157.122 209.299 157.197 211.209 157.217C211.17 161.026 211.219 164.83 211.189 168.639C209.294 168.639 207.403 168.639 205.513 168.639C205.488 164.845 205.537 161.051 205.479 157.257Z" fill="#F0F0F0"/>
<path d="M41.8262 164.561C51.0518 164.586 60.2722 164.606 69.4926 164.546C69.6262 166.178 69.5748 167.819 69.5697 169.456C60.303 169.461 51.0312 169.456 41.7646 169.446C41.7492 167.814 41.7235 166.183 41.8262 164.561V164.561Z" fill="#F0F0F0"/>
</g>
<defs>
<clipPath id="clip0_312_2">
<rect width="293.072" height="169.458" fill="white"/>
</clipPath>
</defs>
</svg>
