<svg width="1041" height="912" viewBox="0 0 1041 912" fill="none" xmlns="http://www.w3.org/2000/svg">
<path fill-rule="evenodd" clip-rule="evenodd" d="M521 0L793 156.1V468.2L521 630L249 468.2V156.1L521 0ZM301.158 185V289H492.068V75.1L301.158 185ZM549.932 75.2V289.1H740.943V185L549.932 75.2ZM740.943 341H619.409L740.943 410.4V341ZM712.011 456.6L550.032 358.3V549L712.011 456.6ZM492.068 549.1V341H301.158V439.3L492.068 549.1Z" fill="white"/>
<path d="M56.5462 775C72.3872 775 86.4235 780.804 98.5549 792.413C110.185 804.522 116 818.532 116 834.443V852.657C116 868.468 110.185 882.478 98.5549 894.687C86.4235 906.296 72.4874 912 56.5462 912H0.100235V884.58H56.5462C65.369 884.58 72.8885 881.478 79.2048 875.173C85.4209 868.969 88.529 861.463 88.529 852.557V834.343C88.529 825.537 85.4209 817.931 79.2048 811.727C72.9887 805.522 65.369 802.32 56.5462 802.32C42.2092 802.32 26.5687 802.62 26.5687 802.62V834.143H0V775H56.5462Z" fill="white"/>
<path d="M254 912H176.204C168.685 912 161.767 910.197 155.552 906.492C149.336 902.787 144.424 897.779 140.614 891.67C136.905 885.461 135 878.551 135 871.04V816.06C135 808.549 136.805 801.639 140.614 795.43C144.323 789.221 149.336 784.314 155.552 780.608C161.767 776.903 168.685 775 176.204 775H254V802.44H176.204C172.394 802.44 169.186 803.742 166.58 806.446C163.873 809.05 162.57 812.355 162.57 816.06V829.78H240.265V857.22H162.57V870.94C162.57 874.746 163.873 877.95 166.58 880.554C169.186 883.258 172.495 884.56 176.204 884.56H254V912V912Z" fill="white"/>
<path d="M314.231 857.22C306.707 857.22 299.785 855.317 293.565 851.612C287.346 847.906 282.43 842.899 278.618 836.79C274.906 830.581 273 823.671 273 816.06C273 808.449 274.806 801.639 278.618 795.43C282.33 789.221 287.346 784.314 293.565 780.608C299.785 776.903 306.707 775 314.231 775H394.285V802.44H314.231C310.419 802.44 307.209 803.742 304.6 806.446C301.892 809.05 300.588 812.355 300.588 816.06C300.588 819.866 301.892 823.17 304.6 825.774C307.209 828.378 310.519 829.78 314.231 829.78H357.769C365.293 829.78 372.215 831.683 378.435 835.388C384.654 839.094 389.57 844.101 393.382 850.31C397.094 856.519 399 863.429 399 870.94C399 878.451 397.194 885.361 393.382 891.57C389.67 897.779 384.654 902.686 378.435 906.392C372.215 910.097 365.293 912 357.769 912H275.408V884.56H357.769C361.581 884.56 364.791 883.258 367.4 880.554C370.108 877.95 371.412 874.645 371.412 870.94C371.412 867.235 370.108 863.93 367.4 861.226C364.691 858.522 361.481 857.22 357.769 857.22H314.231Z" fill="white"/>
<path d="M463.777 912V802.44H417V775H538V802.44H491.223V912H463.777Z" fill="white"/>
<path d="M550 868.126V817.974C550 810.097 552.004 802.918 555.912 796.337C559.82 789.856 565.031 784.672 571.645 780.783C578.158 776.894 585.473 775 593.49 775H651.51C659.527 775 666.742 776.894 673.355 780.783C679.869 784.672 685.18 789.856 689.088 796.337C692.996 802.818 695 810.097 695 817.974V868.126C695 876.003 692.996 883.182 689.088 889.663C685.18 896.144 679.969 901.328 673.355 905.217C666.842 909.106 659.527 911 651.51 911H593.49C585.473 911 578.258 909.106 571.645 905.217C565.131 901.328 559.82 896.144 555.912 889.663C552.004 883.182 550 876.003 550 868.126ZM579.06 868.126C579.06 872.114 580.463 875.405 583.269 878.196C586.075 880.988 589.482 882.384 593.49 882.384H646.9L579.16 825.751V868.126H579.06ZM665.94 817.974C665.94 813.985 664.537 810.695 661.731 807.804C658.925 805.012 655.518 803.616 651.51 803.616H597.498L665.84 860.847V817.974H665.94Z" fill="white"/>
<path d="M835.9 825.31C835.9 833.829 833.604 841.445 828.912 848.26C824.219 854.975 818.129 859.986 810.641 863.193L834.303 912H803.952L781.888 866.3H740.356V912H713V852.57C713 848.762 714.298 845.555 716.994 842.849C719.689 840.143 722.884 838.84 726.678 838.84H794.967C798.761 838.84 801.955 837.537 804.651 834.831C807.347 832.225 808.644 828.918 808.644 825.21V816.09C808.644 812.282 807.347 809.075 804.651 806.469C801.955 803.863 798.761 802.46 794.967 802.46H713V775H794.967C802.455 775 809.343 776.904 815.533 780.612C821.723 784.32 826.615 789.331 830.409 795.445C834.103 801.658 836 808.574 836 816.09V825.31H835.9Z" fill="white"/>
<path d="M882 775V912H855V775H882Z" fill="white"/>
<path d="M971.05 775C973.756 775 976.161 775.802 978.466 777.205C980.671 778.708 982.374 780.713 983.577 783.118L1041 912H1011.04L971.05 822.404L931.064 912H901L958.423 783.118C959.626 780.612 961.229 778.608 963.534 777.205C965.839 775.702 968.344 775 971.05 775Z" fill="white"/>
</svg>
