<svg width="47" height="42" viewBox="0 0 47 42" fill="none" xmlns="http://www.w3.org/2000/svg">
<path d="M23.7074 0.00347133C24.0082 -0.0372522 24.1651 0.290679 24.3786 0.445C25.4465 1.53596 26.6648 2.49404 27.6498 3.65573C32.148 11.3032 36.6375 18.9571 41.1335 26.6067C42.7419 29.4102 44.4657 32.1579 46 35C39.4925 28.9279 33.0176 22.8194 26.5253 16.728C24.0147 17.4224 21.5302 18.2262 19 18.8478C20.5517 12.5635 22.1317 6.28347 23.7074 0.00347133Z" fill="#F83600"/>
<path d="M1.31353 34.9978C7.52695 24.656 13.747 14.3185 20 4C18.0726 11.8796 16.0176 19.7318 14.0418 27.6009C13.9186 28.2143 13.5996 28.8404 13.736 29.4707C15.56 31.2224 17.4895 32.8729 19.3179 34.6183C12.8823 36.4185 6.44444 38.2251 0 40C0.442244 38.3347 0.772277 36.6336 1.31353 34.9978Z" fill="#F83600"/>
<path d="M25.1604 20.0207C25.4335 19.9183 25.6091 20.2234 25.8042 20.3439C27.534 21.8998 29.2941 23.4236 31 24.9997C30.3779 27.3145 29.8078 29.6454 29.1423 31.9502C26.6582 32.685 24.1351 33.3335 21.625 34C19.7608 32.3296 17.8403 30.7155 16 29.023C16.6113 26.664 17.1944 24.295 17.8837 21.956C20.3223 21.3538 22.7262 20.635 25.1604 20.0207Z" fill="#F83600"/>
<path d="M32.9674 28C37.6979 32.1501 42.3097 36.4243 47 40.6185C45.296 41.0547 43.6259 41.631 41.9007 41.9812C30.6615 42.0132 19.4222 41.9912 8.18299 41.9952C7.4518 42.0112 6.7206 41.9912 6 41.8771C8.9481 41.1948 11.8347 40.2923 14.7574 39.5179C20.2212 38.0171 25.6808 36.4904 31.151 35.0096C31.7975 32.6824 32.3845 30.3412 32.9674 28Z" fill="#F83600"/>
</svg>
