<svg width="29" height="28" viewBox="0 0 29 28" fill="none" xmlns="http://www.w3.org/2000/svg">
<path opacity="0.6" d="M6.45198 27.9725L0.507812 21.3908V0H28.4804V27.9725H6.45198Z" fill="#F0F0F0"/>
<rect opacity="0.6" x="8.89844" y="8.48633" width="10.3522" height="10.3522" fill="white"/>
<path d="M11.3938 6.54688C9.001 6.54688 7.05463 8.49505 7.05463 10.8885V17.089C7.05463 19.4818 9.0028 21.4281 11.3962 21.4281H17.5967C19.9895 21.4281 21.9359 19.48 21.9359 17.0866V10.886C21.9359 8.49325 19.9877 6.54688 17.5943 6.54688H11.3938ZM18.8356 9.02709C19.1779 9.02709 19.4557 9.30487 19.4557 9.64714C19.4557 9.98941 19.1779 10.2672 18.8356 10.2672C18.4934 10.2672 18.2156 9.98941 18.2156 9.64714C18.2156 9.30487 18.4934 9.02709 18.8356 9.02709ZM14.4953 10.2672C16.547 10.2672 18.2156 11.9358 18.2156 13.9875C18.2156 16.0393 16.547 17.7078 14.4953 17.7078C12.4435 17.7078 10.7749 16.0393 10.7749 13.9875C10.7749 11.9358 12.4435 10.2672 14.4953 10.2672ZM14.4953 11.5073C13.8375 11.5073 13.2066 11.7686 12.7415 12.2337C12.2764 12.6989 12.015 13.3297 12.015 13.9875C12.015 14.6453 12.2764 15.2762 12.7415 15.7413C13.2066 16.2064 13.8375 16.4677 14.4953 16.4677C15.1531 16.4677 15.7839 16.2064 16.249 15.7413C16.7142 15.2762 16.9755 14.6453 16.9755 13.9875C16.9755 13.3297 16.7142 12.6989 16.249 12.2337C15.7839 11.7686 15.1531 11.5073 14.4953 11.5073Z" fill="#0D0D0D"/>
</svg>
