<svg width="2749" height="431" viewBox="0 0 2749 431" fill="none" xmlns="http://www.w3.org/2000/svg">
<path fill-rule="evenodd" clip-rule="evenodd" d="M186 0L372 106.75V320.251L186 431L0 320.251V106.75L186 0ZM35.6191 126.541V197.708H166.289V51.3762L35.6191 126.541ZM205.811 51.3762V197.708H336.481V126.541L205.811 51.3762ZM336.481 233.292H253.336L336.481 280.77V233.292V233.292ZM316.67 312.355L205.811 245.086V375.626L316.67 312.355ZM166.189 375.626V233.292H35.6191V300.561L166.189 375.626Z" fill="white"/>
<path d="M659.356 69C692.888 69 722.428 81.3212 748.075 105.863C772.725 131.708 785 161.459 785 195.117V233.883C785 267.541 772.725 297.292 748.075 323.137C722.527 347.679 692.888 360 659.356 360H540V301.8H659.356C678.018 301.8 693.986 295.189 707.159 281.866C720.332 268.643 726.919 252.615 726.919 233.883V195.217C726.919 176.485 720.332 160.457 707.159 147.234C693.986 134.012 678.018 127.3 659.356 127.3C629.018 127.3 596.086 127.801 596.086 127.801V194.616H540V69H659.356Z" fill="white"/>
<path d="M1078 360H913.104C897.085 360 882.467 356.091 869.352 348.172C856.136 340.253 845.623 329.727 837.814 316.596C829.905 303.364 826 288.829 826 272.69V156.21C826 140.171 829.905 125.636 837.814 112.404C845.723 99.2728 856.236 88.6473 869.352 80.8284C882.567 72.9094 897.085 69 913.104 69H1078V127.34H913.104C905.094 127.34 898.286 130.147 892.679 135.861C887.073 141.474 884.269 148.291 884.269 156.31V185.48H1048.97V243.821H884.169V272.991C884.169 281.01 886.973 287.826 892.579 293.44C898.186 299.154 904.994 301.96 913.004 301.96H1077.9V360H1078Z" fill="white"/>
<path d="M1204.97 243.56C1188.97 243.56 1174.38 239.552 1161.28 231.736C1148.09 223.819 1137.59 213.298 1129.8 200.17C1121.9 186.943 1118 172.313 1118 156.18C1118 140.046 1121.9 125.517 1129.8 112.389C1137.69 99.1622 1148.19 88.6405 1161.28 80.8244C1174.48 72.9081 1188.97 69 1204.97 69H1374.3V127.32H1204.97C1196.97 127.32 1190.17 130.126 1184.57 135.838C1178.98 141.449 1176.18 148.263 1176.18 156.28C1176.18 164.296 1178.98 171.311 1184.57 177.023C1190.17 182.634 1196.97 185.44 1204.97 185.44H1297.03C1313.03 185.44 1327.62 189.448 1340.72 197.264C1353.91 205.181 1364.41 215.702 1372.2 228.93C1380.1 242.157 1384 256.787 1384 272.82C1384 288.853 1380.1 303.483 1372.2 316.611C1364.31 329.838 1353.81 340.36 1340.72 348.176C1327.62 355.992 1313.03 360 1297.03 360H1122.8V301.68H1297.03C1305.03 301.68 1311.83 298.874 1317.43 293.162C1323.02 287.551 1325.82 280.737 1325.82 272.72C1325.82 264.704 1323.02 257.889 1317.43 252.077C1311.83 246.366 1305.03 243.56 1297.03 243.56H1204.97Z" fill="white"/>
<path d="M1524.05 360V127.32H1425V69H1681V127.32H1581.95V360H1524.05Z" fill="white"/>
<path d="M1707 267.505V160.695C1707 143.877 1711.1 128.562 1719.5 114.647C1727.81 100.833 1738.91 89.7214 1752.81 81.4128C1766.72 73.2043 1782.12 69 1799.03 69H1921.97C1938.88 69 1954.28 73.1042 1968.19 81.4128C1982.09 89.7214 1993.19 100.733 2001.5 114.647C2009.8 128.562 2014 143.877 2014 160.695V267.505C2014 284.323 2009.8 299.639 2001.5 313.453C1993.19 327.267 1982.09 338.279 1968.19 346.587C1954.28 354.896 1938.88 359 1921.97 359H1799.03C1782.12 359 1766.72 354.896 1752.81 346.587C1738.91 338.379 1727.81 327.267 1719.5 313.453C1711.2 299.639 1707 284.323 1707 267.505ZM1768.52 267.505C1768.52 275.914 1771.52 283.121 1777.42 289.028C1783.32 294.934 1790.63 297.937 1799.03 297.937H1912.07L1768.42 177.212V267.505H1768.52ZM1952.58 160.695C1952.58 152.286 1949.58 145.079 1943.68 139.072C1937.78 133.066 1930.47 130.163 1922.07 130.163H1807.63L1952.58 252.19V160.695Z" fill="white"/>
<path d="M2313 175.884C2313 193.915 2308.11 210.143 2298.23 224.567C2288.35 238.892 2275.47 249.51 2259.5 256.322L2309.61 360H2245.23L2198.32 263.134H2110.19V360H2052.1V233.983C2052.1 225.97 2054.89 219.158 2060.58 213.348C2066.27 207.638 2073.06 204.833 2081.04 204.833H2225.97C2233.95 204.833 2240.74 202.029 2246.43 196.319C2252.12 190.709 2254.91 183.897 2254.91 175.884V156.25C2254.91 148.236 2252.12 141.424 2246.43 135.815C2240.74 130.205 2233.95 127.3 2225.97 127.3H2052V69H2225.97C2241.94 69 2256.51 73.0069 2269.58 80.8203C2282.76 88.7339 2293.24 99.252 2301.02 112.375C2308.91 125.597 2312.8 140.122 2312.8 156.15V175.884H2313Z" fill="white"/>
<path d="M2412 69V360H2354V69H2412Z" fill="white"/>
<path d="M2601.1 69C2606.79 69 2611.99 70.6039 2616.78 73.7113C2621.47 76.8188 2625.07 81.0289 2627.56 86.3417L2749 360H2685.59L2601.1 169.742L2516.61 359.9H2453L2574.44 86.2415C2576.83 80.9287 2580.43 76.7186 2585.22 73.6111C2589.91 70.5036 2595.21 69 2601.1 69Z" fill="white"/>
</svg>
