<svg width="28" height="28" viewBox="0 0 28 28" fill="none" xmlns="http://www.w3.org/2000/svg">
<path opacity="0.6" d="M5.97151 27.9725L0.0273438 21.3908V0H27.9999V27.9725H5.97151Z" fill="#F0F0F0"/>
<g clip-path="url(#clip0_518_15177)">
<path d="M19.673 9.6522L20.7572 8.65403V8.43555H17.0014L14.3247 14.8474L11.2795 8.43555H7.34146V8.65403L8.60791 10.1213C8.73132 10.2297 8.79586 10.3883 8.77944 10.5479V16.3141C8.81851 16.5217 8.74831 16.7353 8.59658 16.8862L7.16992 18.5502V18.7659H11.215V18.5475L9.7883 16.8862C9.63374 16.7347 9.56071 16.525 9.59185 16.3141V11.3265L13.1426 18.7687H13.5554L16.6085 11.3265V17.2551C16.6085 17.4114 16.6085 17.4436 16.5021 17.546L15.4038 18.5687V18.7877H20.7323V18.5692L19.6736 17.5716C19.5807 17.5041 19.5326 17.3907 19.5524 17.2807V9.94315C19.5326 9.83255 19.5802 9.71922 19.673 9.6522Z" fill="black"/>
</g>
<defs>
<clipPath id="clip0_518_15177">
<rect width="13.5872" height="13.5872" fill="white" transform="translate(7.16992 7.1416)"/>
</clipPath>
</defs>
</svg>
