<svg width="28" height="28" viewBox="0 0 28 28" fill="none" xmlns="http://www.w3.org/2000/svg">
<path opacity="0.6" d="M6.5035 27.9725L0 21.3908V0H27.9725V27.9725H6.5035Z" fill="#F0F0F0"/>
<path d="M22.8248 9.26902C22.1818 9.5293 21.4911 9.70446 20.7662 9.78346C21.5066 9.37925 22.0743 8.73926 22.3417 7.97616C21.6497 8.35036 20.8824 8.62228 20.0654 8.76927C19.4117 8.13417 18.4805 7.7373 17.4498 7.7373C15.4705 7.7373 13.8661 9.20042 13.8661 11.0041C13.8661 11.2601 13.8983 11.5099 13.9588 11.7482C10.9804 11.6122 8.33992 10.3114 6.57156 8.33443C6.26384 8.81704 6.08714 9.37803 6.08714 9.97761C6.08714 11.1106 6.71937 12.1107 7.68081 12.6962C7.0936 12.6791 6.54065 12.5321 6.05757 12.2877C6.05757 12.3018 6.05757 12.3147 6.05757 12.3288C6.05757 13.9119 7.29247 15.2323 8.93251 15.5318C8.63218 15.6065 8.31506 15.6463 7.98786 15.6463C7.75741 15.6463 7.53233 15.6255 7.31397 15.5882C7.77017 16.8859 9.09376 17.8309 10.6619 17.8573C9.43574 18.7337 7.89044 19.2561 6.21076 19.2561C5.92186 19.2561 5.63631 19.2408 5.35547 19.2101C6.94176 20.1368 8.82501 20.6775 10.8494 20.6775C17.4418 20.6775 21.0457 15.6996 21.0457 11.3825C21.0457 11.2411 21.0423 11.1002 21.0356 10.96C21.7364 10.4988 22.3444 9.92371 22.8248 9.26902Z" fill="#0D0D0D"/>
</svg>
