<svg width="28" height="28" viewBox="0 0 28 28" fill="none" xmlns="http://www.w3.org/2000/svg">
<path opacity="0.6" d="M5.9579 27.9725L0.0137329 21.3908V0H27.9863V27.9725H5.9579Z" fill="#F0F0F0"/>
<rect opacity="0.6" x="9.1485" y="10.9209" width="9.70518" height="5.17609" fill="white"/>
<path d="M19.1583 9.24479C18.2098 8.82278 17.1927 8.51185 16.1292 8.33376C16.1099 8.33032 16.0905 8.33891 16.0806 8.35608C15.9497 8.58169 15.8048 8.876 15.7034 9.10733C14.5596 8.94127 13.4216 8.94127 12.3013 9.10733C12.1998 8.87087 12.0496 8.58169 11.9182 8.35608C11.9083 8.33948 11.8889 8.33088 11.8696 8.33376C10.8067 8.51126 9.78961 8.82219 8.84052 9.24479C8.83229 9.24823 8.82526 9.25395 8.82058 9.26139C6.89136 12.0563 6.36284 14.7825 6.6221 17.4749C6.62326 17.4881 6.63091 17.5007 6.64146 17.5087C7.9143 18.4152 9.1473 18.9654 10.3574 19.3302C10.3767 19.3359 10.3972 19.3291 10.4096 19.3136C10.6958 18.9346 10.951 18.5349 11.1697 18.1146C11.1826 18.0899 11.1703 18.0607 11.1439 18.051C10.7392 17.9021 10.3538 17.7206 9.98309 17.5145C9.95377 17.4979 9.95141 17.4572 9.97841 17.4377C10.0564 17.3811 10.1345 17.3221 10.209 17.2625C10.2224 17.2516 10.2412 17.2493 10.2571 17.2562C12.6925 18.3344 15.3291 18.3344 17.7358 17.2562C17.7516 17.2488 17.7704 17.2511 17.7845 17.2619C17.859 17.3215 17.937 17.381 18.0156 17.4377C18.0426 17.4572 18.0408 17.4978 18.0115 17.5144C17.6408 17.7246 17.2554 17.9021 16.8501 18.0504C16.8237 18.0601 16.8119 18.0899 16.8249 18.1145C17.0484 18.5342 17.3035 18.9339 17.5845 19.313C17.5962 19.329 17.6173 19.3359 17.6367 19.3302C18.8526 18.9654 20.0856 18.4151 21.3584 17.5087C21.3696 17.5007 21.3766 17.4887 21.3778 17.4755C21.6881 14.3628 20.8581 11.6589 19.1776 9.26195C19.1735 9.25395 19.1665 9.24823 19.1583 9.24479ZM11.5335 15.8355C10.8003 15.8355 10.1961 15.1828 10.1961 14.3811C10.1961 13.5794 10.7885 12.9267 11.5335 12.9267C12.2843 12.9267 12.8826 13.5852 12.8708 14.3811C12.8708 15.1828 12.2784 15.8355 11.5335 15.8355ZM16.4782 15.8355C15.745 15.8355 15.1409 15.1828 15.1409 14.3811C15.1409 13.5794 15.7333 12.9267 16.4782 12.9267C17.229 12.9267 17.8273 13.5852 17.8156 14.3811C17.8156 15.1828 17.2291 15.8355 16.4782 15.8355Z" fill="black"/>
</svg>
