<svg width="27" height="26" viewBox="0 0 27 26" fill="none" xmlns="http://www.w3.org/2000/svg">
<path d="M6.26147 26L0.753906 19.9016V0.0820312H26.6718V26H6.26147Z" fill="white"/>
<path d="M10.4715 18.5478H7.67578V10.0041H10.4715V18.5478ZM9.07422 8.86498C8.30091 8.86498 7.67578 8.22648 7.67578 7.44046C7.67578 6.65445 8.30203 6.01709 9.07422 6.01709C9.84473 6.01709 10.4715 6.65559 10.4715 7.44046C10.4715 8.22648 9.84473 8.86498 9.07422 8.86498ZM20.5362 18.5478H17.8484V14.3899C17.8484 13.3982 17.83 12.123 16.4511 12.123C15.0515 12.123 14.8363 13.2029 14.8363 14.3181V18.5478H12.149V9.99787H14.7289V11.1661H14.7653C15.1242 10.494 16.0015 9.78542 17.3099 9.78542C20.033 9.78542 20.5362 11.5562 20.5362 13.8585V18.5478Z" fill="#0D0D0D"/>
</svg>
