<svg width="20" height="20" viewBox="0 0 20 20" fill="none" xmlns="http://www.w3.org/2000/svg">
<path d="M4.25 20L0 15.2941V0H20V20H4.25Z" fill="#F0F0F0"/>
<path d="M9.84375 5C7.17277 5 5 7.17277 5 9.84375C5 12.5147 7.17277 14.6875 9.84375 14.6875C12.5147 14.6875 14.6875 12.5147 14.6875 9.84375C14.6875 7.17277 12.5147 5 9.84375 5ZM9.49777 9.49777H8.1218C8.14152 8.95423 8.20622 8.45325 8.30413 8.00382C8.69059 8.05641 9.08882 8.08858 9.49742 8.10035V9.49777H9.49777ZM9.49777 10.1897V11.5878C9.09124 11.5996 8.69232 11.6314 8.30448 11.684C8.20622 11.2346 8.14152 10.7336 8.1218 10.1897H9.49777ZM10.1897 10.1897H11.5657C11.546 10.7336 11.4813 11.2346 11.383 11.684C10.9952 11.6314 10.5963 11.5996 10.1897 11.5878V10.1897ZM10.1897 9.49777V8.1C10.5983 8.08824 10.9966 8.05606 11.383 8.00347C11.4809 8.4529 11.546 8.95388 11.5654 9.49742H10.1897V9.49777ZM10.1897 7.40769V5.79265C10.5693 6.00369 10.9377 6.54689 11.1993 7.32915C10.8699 7.37102 10.5333 7.39731 10.1897 7.40769ZM9.49777 5.79265V7.40769C9.15421 7.39731 8.81757 7.37102 8.48819 7.3295C8.74975 6.54689 9.11823 6.00369 9.49777 5.79265V5.79265ZM7.43018 9.49777H5.70961C5.77016 8.77051 6.01546 8.0955 6.4033 7.52256C6.75586 7.67133 7.16689 7.79623 7.62116 7.89206C7.5146 8.38717 7.44955 8.92759 7.43018 9.49777ZM7.43018 10.1897C7.44955 10.7599 7.5146 11.3003 7.62081 11.7954C7.16654 11.8913 6.75551 12.0162 6.40296 12.1649C6.01546 11.592 5.76981 10.917 5.70961 10.1897H7.43018ZM9.49777 12.2798V13.8949C9.11823 13.6838 8.74975 13.1406 8.48819 12.3583C8.81757 12.3165 9.15421 12.2902 9.49777 12.2798ZM10.1897 13.8949V12.2798C10.5333 12.2902 10.8699 12.3165 11.1993 12.358C10.9377 13.1406 10.5693 13.6838 10.1897 13.8949ZM12.2573 10.1897H13.9782C13.9177 10.917 13.6724 11.592 13.2845 12.1649C12.932 12.0162 12.521 11.8913 12.0667 11.7954C12.1729 11.3003 12.2379 10.7599 12.2573 10.1897ZM12.2573 9.49777C12.2379 8.92759 12.1729 8.38717 12.0667 7.89206C12.521 7.79623 12.932 7.67133 13.2845 7.52256C13.6724 8.0955 13.9177 8.77086 13.9782 9.49777H12.2573ZM12.8258 6.96172C12.5486 7.06448 12.2324 7.15132 11.8889 7.22224C11.7339 6.73302 11.5359 6.30781 11.3052 5.96252C11.8847 6.18153 12.403 6.5244 12.8258 6.96172ZM8.38232 5.96252C8.15121 6.30781 7.95365 6.73302 7.79865 7.22224C7.45509 7.15166 7.13886 7.06448 6.86173 6.96172C7.28452 6.5244 7.8028 6.18153 8.38232 5.96252ZM6.86173 12.7258C7.13886 12.623 7.45509 12.5362 7.79865 12.4653C7.95365 12.9545 8.15155 13.3797 8.38232 13.725C7.8028 13.506 7.28452 13.1631 6.86173 12.7258ZM11.3052 13.725C11.5363 13.3797 11.7339 12.9545 11.8889 12.4653C12.2324 12.5362 12.5486 12.6234 12.8258 12.7258C12.403 13.1631 11.8847 13.506 11.3052 13.725Z" fill="#1B1B1B"/>
</svg>
