<svg width="26" height="26" viewBox="0 0 26 26" fill="none" xmlns="http://www.w3.org/2000/svg">
<path d="M6.04489 26L0 19.8824V0H26V26H6.04489Z" fill="#F0F0F0"/>
<path d="M21.2406 7.42713C20.6543 7.67412 20.0245 7.84033 19.3634 7.9153C20.0385 7.53173 20.5563 6.92442 20.8001 6.20029C20.169 6.55538 19.4694 6.81342 18.7244 6.95289C18.1282 6.35023 17.2791 5.97363 16.3392 5.97363C14.5343 5.97363 13.0713 7.36204 13.0713 9.07356C13.0713 9.31649 13.1007 9.55361 13.1558 9.77968C10.4398 9.65066 8.03203 8.41627 6.41948 6.54027C6.13888 6.99823 5.97775 7.53057 5.97775 8.09953C5.97775 9.17469 6.55427 10.1237 7.431 10.6793C6.89553 10.663 6.3913 10.5236 5.95079 10.2917C5.95079 10.3051 5.95079 10.3173 5.95079 10.3306C5.95079 11.8329 7.07688 13.0859 8.57241 13.3701C8.29854 13.441 8.00936 13.4788 7.71099 13.4788C7.50085 13.4788 7.2956 13.459 7.09648 13.4236C7.51249 14.6551 8.71945 15.5518 10.1494 15.5768C9.0313 16.4084 7.62216 16.9042 6.09048 16.9042C5.82703 16.9042 5.56664 16.8896 5.31055 16.8606C6.75706 17.7399 8.47438 18.2531 10.3204 18.2531C16.3319 18.2531 19.6183 13.5294 19.6183 9.43272C19.6183 9.29847 19.6152 9.16481 19.6091 9.03172C20.2481 8.5941 20.8026 8.04839 21.2406 7.42713Z" fill="#0D0D0D"/>
</svg>
