<svg width="20" height="20" viewBox="0 0 20 20" fill="none" xmlns="http://www.w3.org/2000/svg">
<path d="M4.25 20L0 15.2941V0H20V20H4.25Z" fill="#F0F0F0"/>
<g clip-path="url(#clip0_689_703)">
<path d="M9.26102 9.86778C9.47595 9.75967 9.63844 9.63926 9.74979 9.50914C9.94788 9.27479 10.0456 8.96405 10.0456 8.57886C10.0456 8.20403 9.94788 7.88358 9.75238 7.61492C9.4261 7.17729 8.87389 6.9533 8.09316 6.94165H5V13.2555H7.88405C8.20904 13.2555 8.51007 13.2277 8.78844 13.1707C9.06681 13.1131 9.30763 13.0075 9.51155 12.8535C9.69282 12.7195 9.8443 12.5531 9.96472 12.3569C10.155 12.0604 10.2502 11.7245 10.2502 11.3503C10.2502 10.9877 10.1667 10.6789 10.001 10.4252C9.8333 10.1714 9.5873 9.98561 9.26102 9.86778ZM6.27598 8.0383H7.66913C7.97533 8.0383 8.22781 8.07132 8.42591 8.1367C8.65508 8.23187 8.76966 8.42543 8.76966 8.72064C8.76966 8.98541 8.68227 9.17056 8.50942 9.27479C8.33527 9.37902 8.10934 9.43145 7.83226 9.43145H6.27598V8.0383ZM8.47899 12.0488C8.32492 12.1232 8.10805 12.1601 7.83032 12.1601H6.27598V10.4763H7.85169C8.12617 10.4783 8.33981 10.5145 8.49259 10.5825C8.76448 10.7055 8.89978 10.9308 8.89978 11.2603C8.89978 11.6487 8.75995 11.9102 8.47899 12.0488Z" fill="#1B1B1B"/>
<path d="M14.3611 7.23633H11.6182V8.02224H14.3611V7.23633Z" fill="#1B1B1B"/>
<path d="M15.3138 10.3379C15.2568 9.97217 15.1313 9.65042 14.9357 9.3727C14.7215 9.05808 14.4496 8.82761 14.1188 8.68195C13.7892 8.53564 13.4183 8.46249 13.0053 8.46314C12.3119 8.46314 11.7487 8.68001 11.313 9.11051C10.8787 9.54231 10.6611 10.1631 10.6611 10.9724C10.6611 11.8353 10.9013 12.4587 11.3842 12.8413C11.8652 13.2246 12.4207 13.4156 13.0512 13.4156C13.8145 13.4156 14.4081 13.1883 14.8322 12.7352C15.1034 12.449 15.2568 12.1674 15.2905 11.891H14.0268C13.9537 12.0276 13.8689 12.1344 13.7718 12.2121C13.5957 12.3545 13.3665 12.4257 13.0855 12.4257C12.8182 12.4257 12.5916 12.3668 12.4026 12.2496C12.0905 12.0619 11.9274 11.733 11.9067 11.265H15.3552C15.3604 10.8617 15.3475 10.5516 15.3138 10.3379ZM11.9378 10.459C11.9831 10.1554 12.0931 9.91455 12.2679 9.73652C12.4427 9.55914 12.69 9.46981 13.0066 9.46916C13.2985 9.46916 13.5426 9.55267 13.7413 9.72034C13.9375 9.88931 14.0482 10.1347 14.0709 10.459H11.9378Z" fill="#1B1B1B"/>
</g>
<defs>
<clipPath id="clip0_689_703">
<rect width="10.3571" height="10.3571" fill="white" transform="translate(5 5)"/>
</clipPath>
</defs>
</svg>
