<svg width="20" height="20" viewBox="0 0 20 20" fill="none" xmlns="http://www.w3.org/2000/svg">
<path d="M4.25 20L0 15.2941V0H20V20H4.25Z" fill="#F0F0F0"/>
<rect x="6.42676" y="6.07153" width="7.5" height="7.5" fill="#F0F0F0"/>
<path d="M7.769 4.64282C6.04497 4.64282 4.64258 6.04651 4.64258 7.77099V12.2386C4.64258 13.9626 6.04627 15.365 7.77075 15.365H12.2383C13.9623 15.365 15.3647 13.9613 15.3647 12.2368V7.76925C15.3647 6.04521 13.961 4.64282 12.2366 4.64282H7.769ZM13.131 6.42985C13.3776 6.42985 13.5777 6.63 13.5777 6.87661C13.5777 7.12321 13.3776 7.32336 13.131 7.32336C12.8843 7.32336 12.6842 7.12321 12.6842 6.87661C12.6842 6.63 12.8843 6.42985 13.131 6.42985ZM10.0037 7.32336C11.482 7.32336 12.6842 8.52558 12.6842 10.0039C12.6842 11.4822 11.482 12.6844 10.0037 12.6844C8.52534 12.6844 7.32312 11.4822 7.32312 10.0039C7.32312 8.52558 8.52534 7.32336 10.0037 7.32336ZM10.0037 8.21688C9.52971 8.21688 9.07517 8.40515 8.74004 8.74028C8.40491 9.07542 8.21663 9.52995 8.21663 10.0039C8.21663 10.4779 8.40491 10.9324 8.74004 11.2675C9.07517 11.6027 9.52971 11.7909 10.0037 11.7909C10.4776 11.7909 10.9321 11.6027 11.2673 11.2675C11.6024 10.9324 11.7907 10.4779 11.7907 10.0039C11.7907 9.52995 11.6024 9.07542 11.2673 8.74028C10.9321 8.40515 10.4776 8.21688 10.0037 8.21688Z" fill="#1B1B1B"/>
</svg>
