<svg width="29" height="28" viewBox="0 0 29 28" fill="none" xmlns="http://www.w3.org/2000/svg">
<path opacity="0.6" d="M6.4637 27.9725L0.519531 21.3908V0H28.4921V27.9725H6.4637Z" fill="#F0F0F0"/>
<path d="M20.9694 10.9389C20.8128 10.3846 20.3539 9.94778 19.7719 9.79854C18.7086 9.52148 14.4556 9.52148 14.4556 9.52148C14.4556 9.52148 10.2027 9.52148 9.1394 9.78798C8.56863 9.93712 8.09853 10.3847 7.94189 10.9389C7.66211 11.9512 7.66211 14.0506 7.66211 14.0506C7.66211 14.0506 7.66211 16.1605 7.94189 17.1623C8.09863 17.7164 8.55744 18.1534 9.1395 18.3026C10.2139 18.5796 14.4557 18.5796 14.4557 18.5796C14.4557 18.5796 18.7086 18.5796 19.7719 18.3132C20.354 18.164 20.8128 17.7271 20.9695 17.1729C21.2493 16.1605 21.2493 14.0612 21.2493 14.0612C21.2493 14.0612 21.2605 11.9512 20.9694 10.9389Z" fill="black"/>
<path opacity="0.6" d="M12.8379 15.345L16.72 13.4039L12.8379 11.4629V15.345Z" fill="white"/>
</svg>
