<svg width="169" height="32" viewBox="0 0 169 32" fill="none" xmlns="http://www.w3.org/2000/svg">
<g opacity="0.6">
<path d="M39.7135 6.30427C41.9376 6.29744 44.1617 6.28835 46.3835 6.31337C48.7006 6.36114 51.0743 7.14137 52.7316 8.81786C54.2461 10.2419 55.094 12.2641 55.3207 14.3136C55.5361 16.2768 55.4318 18.3149 54.7494 20.1825C54.0171 22.2025 52.4731 23.9176 50.5234 24.8207C49.0293 25.5281 47.3584 25.7715 45.717 25.7533C43.7173 25.7442 41.7177 25.7397 39.7181 25.7192C39.7067 21.015 39.7226 16.3109 39.709 11.609C40.5977 11.5885 41.4864 11.5953 42.3774 11.5931C42.391 15.451 42.3774 19.3113 42.3774 23.1692C44.6242 23.126 47.0297 23.5582 49.1245 22.53C51.3509 21.2584 52.7497 18.6834 52.6636 16.1175C52.7202 12.7054 50.1538 9.13405 46.6193 8.8588C44.3295 8.77691 42.0351 8.88383 39.743 8.87246C39.7249 8.01488 39.7181 7.15957 39.7135 6.30427Z" fill="white"/>
<path d="M58.1543 6.24131C62.2511 6.24131 66.3478 6.23449 70.4446 6.24131C70.4491 6.98288 70.4446 7.72445 70.4378 8.46602C67.2184 8.48194 63.9991 8.43872 60.7797 8.48649C60.7933 10.3905 60.7978 12.2967 60.7751 14.2007C63.9968 14.2643 67.2207 14.2098 70.4446 14.2234C70.4333 14.9786 70.4741 15.7361 70.3993 16.4913C67.198 16.4458 63.9945 16.4617 60.791 16.4504C60.7865 17.9176 60.7842 19.3848 60.791 20.852C59.9159 20.8566 59.043 20.852 58.1679 20.852C58.152 15.9818 58.1611 11.1093 58.1566 6.23904L58.1543 6.24131Z" fill="white"/>
<path d="M77.7743 6.4593C80.4087 6.05667 83.0704 6.49797 85.7048 6.67768C85.6459 7.53526 85.5801 8.39284 85.5234 9.25269C83.2359 9.05706 80.9165 8.77044 78.6335 9.15487C77.6722 9.3505 76.5205 9.75541 76.2348 10.8177C75.8222 12.3031 77.0034 13.8727 78.4793 14.107C78.4431 14.9555 78.5474 15.8153 78.4159 16.6593C76.9943 16.1702 75.4731 15.738 74.3463 14.6916C73.0631 13.3427 72.9157 11.2203 73.5528 9.53703C74.2193 7.79458 75.9923 6.72317 77.7743 6.4593Z" fill="white"/>
<path d="M89.0371 6.27564C94.5032 6.21877 99.9716 6.29839 105.438 6.23242C105.494 6.98764 105.465 7.74512 105.47 8.50261C99.9966 8.50944 94.5259 8.50261 89.0552 8.50261C89.0462 7.75877 89.0507 7.01721 89.0371 6.27564Z" fill="white"/>
<path d="M119.073 6.34961C121.515 6.53386 123.902 7.66896 125.435 9.61614C127.328 11.9091 127.715 15.0824 127.328 17.9508C126.999 20.4257 125.655 22.7846 123.553 24.1609C122.231 25.0798 120.644 25.5075 119.064 25.6963C119.059 24.9001 119.059 24.104 119.055 23.3101C120.667 23.0189 122.331 22.3684 123.31 20.9808C124.809 19.0813 125.027 16.5041 124.677 14.1838C124.371 12.4186 123.446 10.6853 121.918 9.69803C121.061 9.12935 120.052 8.86775 119.055 8.68122C119.05 7.90326 119.044 7.1253 119.073 6.34961Z" fill="white"/>
<path d="M130.21 6.23965C132.341 6.24192 134.472 6.226 136.606 6.24874C138.453 6.28514 140.46 6.81971 141.655 8.33696C142.892 9.9452 142.983 12.1813 142.512 14.0875C142.088 15.8436 140.573 17.1197 138.877 17.577C140.07 20.3135 141.392 22.9931 142.627 25.7115C141.661 25.7115 140.698 25.7001 139.732 25.7206C138.422 23.1342 137.358 20.4227 135.998 17.8659C134.075 17.9205 132.153 17.8681 130.23 17.8932C130.192 14.0079 130.219 10.1226 130.21 6.23965ZM132.84 8.61675C132.869 10.9302 132.847 13.2413 132.851 15.5547C134.611 15.441 136.479 15.8686 138.152 15.1566C140.312 14.1739 140.594 10.8301 138.8 9.36287C138.014 8.68272 136.923 8.57808 135.93 8.5758C134.898 8.59173 133.867 8.53031 132.84 8.61675Z" fill="white"/>
<path d="M145.505 6.29329C146.385 6.29329 147.267 6.29329 148.151 6.29102C148.16 8.90925 148.151 11.5275 148.155 14.1434C147.264 14.1275 146.371 14.1889 145.482 14.1139C145.525 11.507 145.489 8.90015 145.505 6.29329Z" fill="white"/>
<path d="M154.492 16.2787C155.76 12.9303 157.009 9.57274 158.319 6.24023C159.312 6.26071 160.305 6.21976 161.298 6.26753C162.543 9.60003 163.81 12.928 165.087 16.2514C164.234 16.306 163.382 16.2741 162.529 16.281C161.634 13.8584 160.745 11.4357 159.863 9.01087C159.698 9.13598 159.589 9.29977 159.532 9.49994C158.709 11.7633 157.886 14.0267 157.043 16.281C156.193 16.281 155.342 16.281 154.492 16.281V16.2787Z" fill="white"/>
<path d="M110.548 9.28768C112.024 7.59982 114.185 6.57846 116.404 6.39648C116.418 7.1699 116.508 7.95014 116.393 8.72127C114.985 8.98742 113.597 9.6107 112.663 10.7299C111.237 12.3745 110.797 14.6606 110.947 16.783C111.069 18.6619 111.8 20.5704 113.235 21.8306C114.123 22.6109 115.259 23.0181 116.397 23.266C116.411 24.0599 116.411 24.856 116.406 25.6522C114.024 25.4134 111.686 24.2828 110.208 22.3629C108.902 20.7297 108.315 18.6323 108.231 16.5669C108.12 13.9805 108.755 11.2303 110.548 9.28768Z" fill="white"/>
<path d="M95.9219 11.176C96.8219 11.1965 97.7265 11.126 98.6243 11.2215C98.5586 16.0599 98.6107 20.9028 98.5903 25.7435C97.7039 25.7435 96.8174 25.7389 95.9332 25.748C95.9173 20.8914 95.9287 16.0349 95.9219 11.176Z" fill="white"/>
<path d="M81.0974 14.752C82.7094 15.1933 84.3735 15.878 85.4164 17.2519C86.5205 18.6986 86.5069 20.7141 85.9378 22.3746C85.43 23.8077 84.1377 24.8518 82.6912 25.2385C79.6124 26.137 76.4067 25.3909 73.2734 25.3113C73.3233 24.4446 73.3823 23.5802 73.4412 22.7158C76.2366 22.891 79.1613 23.6144 81.8796 22.5953C83.2308 22.1403 83.92 20.4183 83.2739 19.1513C82.8794 18.2505 81.9975 17.7046 81.1156 17.3702C81.0793 16.4967 81.0997 15.6232 81.0974 14.752Z" fill="white"/>
<path d="M145.506 16.7738C146.388 16.7738 147.27 16.7738 148.154 16.7738C148.161 19.7582 148.159 22.7427 148.154 25.7272C147.27 25.7294 146.386 25.7317 145.504 25.7294C145.504 22.7427 145.504 19.7582 145.504 16.7715L145.506 16.7738Z" fill="white"/>
<path d="M150.898 25.7029C151.799 23.3098 152.717 20.9236 153.621 18.5306C157.72 18.5147 161.819 18.5465 165.918 18.5215C166.877 20.8963 167.755 23.3053 168.673 25.6983C167.753 25.6801 166.83 25.7415 165.914 25.6528C165.379 23.9945 164.755 22.3658 164.189 20.7189C161.268 20.7007 158.348 20.7189 155.43 20.7143C154.816 22.3704 154.254 24.0468 153.644 25.7051C152.728 25.7006 151.812 25.7029 150.898 25.7029Z" fill="white"/>
<path d="M130.207 20.5769C131.089 20.5155 131.975 20.5496 132.86 20.5587C132.841 22.2852 132.864 24.0095 132.851 25.736C131.973 25.736 131.098 25.736 130.223 25.736C130.212 24.0163 130.234 22.2966 130.207 20.5769Z" fill="white"/>
<path d="M58.1899 23.5088C62.2617 23.5202 66.3313 23.5292 70.4008 23.502C70.4598 24.2435 70.4371 24.9896 70.4349 25.7335C66.3449 25.7357 62.2527 25.7335 58.1627 25.7289C58.1559 24.9874 58.1445 24.2458 58.1899 23.5088Z" fill="white"/>
<path fill-rule="evenodd" clip-rule="evenodd" d="M13.835 0L27.6669 8.03207V23.999L13.8335 32L0 23.999V8.00187L13.835 0ZM3.10635 9.79372V22.2072L13.8335 28.4115L24.5606 22.2072V9.82034L13.8319 3.59029L3.10635 9.79372Z" fill="white"/>
<path d="M13.8418 29.809V2.68164" stroke="white" stroke-width="3.10635" stroke-miterlimit="10"/>
<path d="M25.8382 16.0039H1.83789" stroke="white" stroke-width="3.10635" stroke-miterlimit="10"/>
<path d="M25.6921 22.6098L13.8418 16.0039" stroke="white" stroke-width="3.10635" stroke-miterlimit="10"/>
</g>
</svg>
