<svg width="166" height="158" viewBox="0 0 166 158" fill="none" xmlns="http://www.w3.org/2000/svg">
<g style="mix-blend-mode:lighten" filter="url(#filter0_d_518_15420)">
<circle cx="83" cy="79" r="79" fill="url(#paint0_radial_518_15420)" fill-opacity="0.46" shape-rendering="crispEdges"/>
</g>
<path d="M98.5583 117.001C98.3429 117.001 98.1275 116.962 97.9252 116.89L41.2011 96.0592C40.483 95.7934 40 95.1064 40 94.3481V73.802C40 72.9854 40.5548 72.2595 41.3447 72.0456L66.0448 65.2272C66.345 65.1429 66.6584 65.1364 66.9652 65.2077L125.008 78.8899V102.573C125.008 103.26 124.623 103.882 124.009 104.193L99.4069 116.793C99.1458 116.929 98.8521 116.994 98.5649 116.994L98.5583 117.001ZM66.5343 66.3744C66.4821 66.3744 66.4234 66.3808 66.3712 66.3938L41.6776 73.2187C41.4165 73.29 41.2272 73.5298 41.2272 73.802V94.3481C41.2272 94.6009 41.3904 94.8342 41.6254 94.9184L98.3495 115.743C98.5126 115.802 98.6889 115.789 98.8455 115.711L123.448 103.111C123.65 103.007 123.781 102.8 123.781 102.573V79.8557L66.678 66.3938C66.6323 66.3808 66.5866 66.3808 66.5343 66.3808V66.3744Z" fill="#F0F0F0"/>
<path d="M44.1263 78.9677C46.2673 79.5769 48.0298 81.0223 50.1316 81.7417C52.2335 82.4611 54.5703 82.6556 56.744 82.1565C54.0677 82.3186 51.411 81.9167 48.9632 80.8084C46.5546 79.7195 44.3744 78.4556 41.6328 78.5205C42.4749 78.5788 43.3104 78.7279 44.1198 78.9677C45.3143 79.3112 43.3104 78.7279 44.1198 78.9677H44.1263Z" fill="#F0F0F0"/>
<path d="M56.2145 80.1797C58.0683 80.3742 59.7785 81.4566 61.6715 81.3399C60.0853 80.9834 58.6492 80.1668 57.0565 79.8492C55.6009 79.5575 53.6948 79.7649 52.8789 81.1649C53.7144 80.2381 55.0265 80.0436 56.2145 80.1797C55.503 80.0955 56.926 80.2575 56.2145 80.1797Z" fill="#F0F0F0"/>
<path d="M72.8201 85.6242C74.2757 86.4408 75.7314 88.4501 77.6048 88.1001C76.0186 87.9575 74.9676 86.6353 73.747 85.7732C72.5002 84.8982 70.9532 84.4186 69.4258 84.5223C70.6203 84.6649 71.7757 85.0214 72.8201 85.6177C73.4337 85.9612 72.2065 85.2677 72.8201 85.6177V85.6242Z" fill="#F0F0F0"/>
<path d="M75.4508 89.3964C74.5631 89.3121 73.6949 89.0853 72.8594 88.7807C74.8046 89.9279 77.1088 91.1334 79.3999 91.3538C77.8268 90.6603 76.1949 90.0769 74.5957 89.4353C78.8321 90.5371 83.2316 88.677 87.4027 88.0742C83.3556 87.9251 79.5044 89.7334 75.4508 89.3964C76.3385 89.4677 74.5631 89.3121 75.4508 89.3964Z" fill="#F0F0F0"/>
<path d="M82.2595 90.8351C81.5415 90.8351 80.8365 90.7249 80.125 90.6342C82.0506 91.211 83.9044 91.2434 85.9018 91.062C87.9123 90.8805 89.9032 90.6731 91.8941 91.1138C88.8458 89.6749 85.4514 90.8934 82.2595 90.8351C82.971 90.8481 81.9005 90.8351 82.2595 90.8351Z" fill="#F0F0F0"/>
<path d="M89.5762 92.0341C90.2485 93.1424 91.7564 93.2591 92.9052 93.0322C93.9953 92.8119 95.6011 91.7619 96.6977 92.3711C95.8165 91.4702 93.9888 92.3452 92.9966 92.598C91.8543 92.8961 90.4639 92.9739 89.5827 92.0341C89.7916 92.3841 90.2224 92.7082 89.5827 92.0341H89.5762Z" fill="#F0F0F0"/>
<path d="M96.2724 95.8584C95.091 94.8862 93.0935 94.1149 91.6836 95.0806C93.322 94.6528 94.7319 95.4825 96.2724 95.8584C96.0701 95.6899 95.6915 95.7158 96.2724 95.8584Z" fill="#F0F0F0"/>
<path d="M95.9932 93.6287C95.4514 93.5639 94.9031 93.525 94.3613 93.5315C95.7843 93.9074 97.2661 94.3481 98.7478 94.3935C98.5716 94.3028 98.3823 94.225 98.193 94.1537C99.7531 92.2741 102.39 93.538 104.375 93.0194C103.258 94.2509 101.809 95.1713 100.38 95.9944C102.083 95.3009 103.794 94.3676 105.027 92.9806C105.582 92.3583 106.052 91.6389 106.542 90.9648C106.137 91.2824 105.732 91.6065 105.328 91.9241C104.518 92.5593 103.728 92.6306 102.717 92.5982C101.502 92.5593 100.132 92.5917 99.0677 93.2528C98.8327 93.3954 98.6238 93.5704 98.441 93.7778C98.3888 93.8426 98.2974 94.037 98.2321 94.0694C98.0885 94.1472 98.1669 94.1018 97.971 94.0694C97.3052 93.9528 96.6721 93.7065 95.9932 93.6222C95.4514 93.5574 96.6982 93.713 95.9932 93.6222V93.6287Z" fill="#F0F0F0"/>
<path d="M42.5987 76.6604C42.9904 76.7252 43.3951 76.7641 43.7867 76.6993C42.788 76.3557 41.7175 76.1483 40.6992 75.8696C41.2475 76.278 41.9329 76.5502 42.6053 76.6668C42.9969 76.7317 42.0961 76.5826 42.6053 76.6668L42.5987 76.6604Z" fill="#F0F0F0"/>
<path d="M48.6541 85.9353C46.4674 84.6584 43.5039 83.2584 41.0234 84.626C45.5796 83.0964 49.0196 87.9834 53.3539 88.1778C51.6437 87.7306 50.162 86.8167 48.6476 85.9353C47.7468 85.4103 49.5549 86.4602 48.6476 85.9353H48.6541Z" fill="#F0F0F0"/>
<path d="M46.0561 87.121C45.0443 87.121 44.0195 87.2442 43.0469 87.5488C45.8602 87.3868 48.4517 87.7368 51.1736 88.4303C49.6462 87.5229 47.825 87.1146 46.0561 87.121C47.3877 87.1146 45.0378 87.121 46.0561 87.121Z" fill="#F0F0F0"/>
<path d="M53.1792 86.2075C52.6831 86.0714 52.1543 86.0196 51.6387 86.0585C54.5173 86.3761 56.2797 89.364 59.1975 89.5066C57.0435 88.6769 55.3985 86.8751 53.1792 86.2075C53.6818 86.3566 52.67 86.0714 53.1792 86.2075Z" fill="#F0F0F0"/>
<path d="M58.0625 91.3989C60.0991 91.8785 62.3119 91.7942 64.3616 91.3989C62.5992 91.2498 60.8237 91.3276 59.0612 91.1072C57.4033 90.8998 55.7518 90.1544 54.0742 90.2322C55.4711 90.3878 56.7113 91.0683 58.0625 91.3924C58.885 91.5868 57.2401 91.1915 58.0625 91.3924V91.3989Z" fill="#F0F0F0"/>
<path d="M62.9387 89.4286C62.2924 89.3444 61.6266 89.3768 61 89.5323C64.7403 89.1759 67.2207 92.5073 70.3343 93.9138C68.1607 92.0666 65.9217 89.811 62.9452 89.4286C62.2925 89.3444 63.598 89.5129 62.9452 89.4286H62.9387Z" fill="#F0F0F0"/>
<path d="M67.9894 95.1324C66.7753 94.9444 65.5938 94.5037 64.582 93.8037C67.2191 96.1111 71.4881 96.5259 74.1644 94.0176C72.2192 94.9963 70.1631 95.4435 67.9829 95.1324C66.7818 94.9444 69.556 95.3593 67.9829 95.1324H67.9894Z" fill="#F0F0F0"/>
<path d="M74.949 93.6155C73.3171 93.5572 71.9137 93.2461 70.5625 92.2998C71.4633 93.609 73.4607 94.3414 74.949 93.6155C74.6879 93.609 74.4137 93.8748 74.949 93.6155Z" fill="#F0F0F0"/>
<path d="M79.7379 98.6584C78.1909 96.9538 75.7823 95.6251 73.4062 96.0724C76.3306 96.2992 78.3019 98.0946 80.5735 99.7214C80.3254 99.3455 80.0447 98.989 79.7379 98.6584C80.0447 98.989 78.8437 97.6733 79.7379 98.6584Z" fill="#F0F0F0"/>
<path d="M84.1454 95.8257C81.8999 95.4173 79.1061 93.2461 76.8672 94.7498C79.3933 93.9072 81.6388 96.3701 84.1454 95.8257C83.7407 95.7544 83.695 95.9229 84.1454 95.8257Z" fill="#F0F0F0"/>
<path d="M82.1217 97.4008C82.5003 97.3554 82.8854 97.2777 83.2183 97.0832C82.2718 96.8823 81.0904 97.0508 80.1504 97.2193C80.7705 97.4202 81.4755 97.4786 82.1217 97.4008C82.4938 97.3554 81.6321 97.4591 82.1217 97.4008Z" fill="#F0F0F0"/>
<path d="M89.1325 100.791C88.5907 100.739 88.0359 100.784 87.5137 100.94C90.5947 100.654 92.801 103.487 95.784 103.675C93.5582 102.761 91.6195 101.024 89.139 100.797C88.5907 100.745 89.6873 100.849 89.139 100.797L89.1325 100.791Z" fill="#F0F0F0"/>
<path d="M93.3879 99.6691C92.0628 98.7228 90.1763 98.6062 88.7207 99.3126C90.6333 99.0015 92.3631 99.4617 94.0733 100.298C93.8774 100.058 93.6425 99.8441 93.3879 99.6691C92.6372 99.1312 93.649 99.8441 93.3879 99.6691Z" fill="#F0F0F0"/>
<path d="M94.7726 101.264C94.1394 101.244 93.5062 101.192 92.873 101.167C94.4788 101.646 96.4371 101.957 98.082 101.484C96.9984 101.277 95.8692 101.296 94.7726 101.264C95.595 101.29 94.1394 101.244 94.7726 101.264Z" fill="#F0F0F0"/>
<path d="M42.6369 93.123C41.9058 93.1554 41.1356 93.3563 40.5742 93.8489C42.5259 93.0647 44.3275 93.9332 46.2597 94.2637C45.2218 93.5573 43.9098 93.0582 42.6369 93.123C41.8993 93.1554 43.6226 93.0776 42.6369 93.123Z" fill="#F0F0F0"/>
<path d="M44.8834 91.9628C48.3886 92.1184 51.2803 94.4387 54.7008 94.8989C51.0976 93.4341 46.9722 90.4592 42.9316 92.1573C43.5648 91.9953 44.2306 91.924 44.8834 91.9564C46.8155 92.0406 44.2306 91.924 44.8834 91.9564V91.9628Z" fill="#F0F0F0"/>
<path d="M54.935 97.3811C53.8905 96.9728 53.0093 96.3506 51.854 96.2534C50.7639 96.1561 49.6216 96.3959 48.7012 97.0052C49.961 96.5904 51.3448 96.5839 52.6177 96.9533C53.6621 97.2515 55.0133 98.1978 56.1034 97.5756C55.7052 97.608 55.3005 97.5367 54.935 97.3811C54.3932 97.1672 55.3005 97.5302 54.935 97.3811Z" fill="#F0F0F0"/>
<path d="M63.4322 98.088C61.9048 98.0167 60.4165 97.7315 59.0588 96.9926C57.7598 96.2862 56.5783 95.0288 55.0117 94.9834C56.5979 95.2686 57.564 96.7463 58.8956 97.5047C60.2337 98.263 61.9505 98.5806 63.4322 98.0815C62.9296 98.0556 62.3486 98.4445 63.4322 98.0815V98.088Z" fill="#F0F0F0"/>
<path d="M70.3078 102.45C71.0845 102.93 71.907 103.37 72.7947 103.61C70.5689 102.515 68.8782 100.486 66.3913 99.9094C63.8586 99.3196 61.2215 100.117 58.6953 99.4946C60.6666 100.201 62.8142 99.9872 64.8638 100.195C66.9657 100.409 68.5388 101.374 70.3012 102.45C71.078 102.93 69.5179 101.971 70.3012 102.45H70.3078Z" fill="#F0F0F0"/>
<path d="M72.6436 101.445C74.5888 102.275 76.8147 102.716 78.9231 102.405C75.4047 101.867 72.1149 101.102 69.0273 99.2676C70.1305 100.156 71.3316 100.894 72.6436 101.445C73.4204 101.776 71.8603 101.115 72.6436 101.445Z" fill="#F0F0F0"/>
<path d="M79.8117 105.483C78.121 103.804 75.4056 104.79 73.3364 104.751C71.0713 104.705 68.7149 103.552 66.7109 102.612C68.5909 103.798 70.8494 105.178 73.1275 105.321C75.3207 105.457 77.7686 104.232 79.8182 105.483C79.2895 104.958 79.1002 105.042 79.8182 105.483H79.8117Z" fill="#F0F0F0"/>
<path d="M81.6078 107.927C80.3871 107 78.7813 106.488 77.2539 106.436C78.9902 107.013 80.5699 107.875 82.267 108.53C82.0712 108.303 81.8428 108.102 81.6078 107.927C80.9093 107.395 81.8493 108.102 81.6078 107.927Z" fill="#F0F0F0"/>
<path d="M81.4748 103.96C80.8808 103.869 80.2802 103.817 79.6797 103.83C81.2006 104.316 82.8325 104.9 84.4448 104.964C83.5831 104.394 82.4865 104.109 81.4748 103.96C82.2515 104.076 80.8808 103.869 81.4748 103.96Z" fill="#F0F0F0"/>
<path d="M91.9445 108.458C92.9628 108.976 94.216 109.152 95.3127 108.776C93.6024 108.724 92.3492 108.043 90.9196 107.207C89.7643 106.533 87.7407 105.846 86.8008 107.246C88.3609 105.729 90.5476 107.771 91.9445 108.458C91.2656 108.121 92.9823 108.983 91.9445 108.458Z" fill="#F0F0F0"/>
<path d="M92.4366 111.9C91.2421 111.2 89.8778 109.08 88.3047 110.331C89.7799 109.709 90.6219 111.154 91.588 111.958C92.5867 112.788 94.075 113.189 95.3218 112.703C94.3035 112.658 93.3178 112.438 92.4366 111.9C92.9327 112.204 91.934 111.601 92.4366 111.9Z" fill="#F0F0F0"/>
<path d="M94.8186 110.131C94.1854 110.085 93.4935 110.157 92.9844 110.565C94.675 110.072 96.2808 111.518 97.9388 111.032C96.9205 110.701 95.8956 110.215 94.8186 110.131C94.4988 110.105 95.6737 110.202 94.8186 110.131Z" fill="#F0F0F0"/>
<path d="M105.026 90.725C107.435 90.6472 109.942 89.85 111.88 88.4111C109.987 89.2796 108.003 89.9148 105.934 90.1935C104.902 90.3361 103.865 90.3296 102.833 90.4074C101.952 90.4722 101.025 90.6602 100.379 91.3083C101.645 90.2972 103.545 90.7963 105.026 90.725C105.999 90.6926 104.054 90.7704 105.026 90.725Z" fill="#F0F0F0"/>
<path d="M110.831 91.9631C109.336 92.3973 107.763 92.5723 106.203 92.4946C110.55 93.2334 115.27 91.5742 117.698 87.7891C115.727 89.7076 113.494 91.1659 110.831 91.9631C112.763 91.3862 109.343 92.3973 110.831 91.9631Z" fill="#F0F0F0"/>
<path d="M112.442 86.8361C113.421 86.6936 114.407 86.6547 115.392 86.6287C112.716 85.9417 109.713 86.6806 107.514 88.288C109.093 87.588 110.732 87.0889 112.442 86.8361C111.176 87.0176 113.415 86.6936 112.442 86.8361Z" fill="#F0F0F0"/>
<path d="M112.684 89.0788C114.446 88.3593 116.111 86.9205 116.913 85.1899C115.517 86.5121 114.165 87.8408 112.684 89.0788C112.971 88.9621 113.225 88.6251 112.684 89.0788Z" fill="#F0F0F0"/>
<path d="M120.152 83.5505C120.877 83.4468 121.608 83.3301 122.306 83.1033C120.315 82.9607 118.252 83.3301 116.32 83.7903C117.6 83.7968 118.886 83.7385 120.152 83.5505C119.205 83.6866 120.877 83.4468 120.152 83.5505Z" fill="#F0F0F0"/>
<path d="M120.43 85.4235C119.523 85.3068 118.283 85.3522 117.773 86.2596C118.694 85.1448 120.417 85.9226 121.592 85.9809C122.995 86.0522 124.059 85.1642 124.875 84.1143C124.236 84.5615 123.629 85.08 122.884 85.3587C122.082 85.6568 121.266 85.5207 120.437 85.4235C119.96 85.3652 121.063 85.4948 120.437 85.4235H120.43Z" fill="#F0F0F0"/>
<path d="M119.928 88.0481C120.365 87.8731 120.809 87.7175 121.22 87.4972C119.941 87.387 118.537 88.061 117.656 88.9555C118.413 88.6509 119.171 88.3527 119.928 88.0546C120.359 87.8796 119.366 88.2749 119.928 88.0546V88.0481Z" fill="#F0F0F0"/>
<path d="M102.286 100.324C104.335 100.207 107.109 100.447 108.48 98.5674C106.979 99.7405 105.027 99.6368 103.226 99.7211C101.411 99.8053 99.6354 100.259 98.1406 101.322C99.4592 100.758 100.85 100.402 102.286 100.324C101.444 100.369 103.128 100.278 102.286 100.324Z" fill="#F0F0F0"/>
<path d="M102.241 102.165C100.955 102.301 99.6951 102.943 98.8008 103.863C100.159 103.156 101.575 102.703 102.991 102.152C102.743 102.126 102.489 102.139 102.241 102.165C101.503 102.243 102.489 102.132 102.241 102.165Z" fill="#F0F0F0"/>
<path d="M104.361 98.4185C104.76 96.2537 107.886 96.6491 109.453 96.3185C111.424 95.8973 113.35 94.8343 114.596 93.2334C112.938 94.5556 111.046 95.5343 108.95 95.9361C107.41 96.2278 104.466 96.2278 104.361 98.425C104.479 97.7833 104.394 97.6861 104.361 98.425V98.4185Z" fill="#F0F0F0"/>
<path d="M115.549 94.7886C113.382 95.6376 111.339 97.258 109.877 99.0469C111.809 97.7376 113.8 96.3376 115.549 94.7886C114.897 95.3654 115.19 94.9312 115.549 94.7886Z" fill="#F0F0F0"/>
<path d="M117.448 94.7047C119.002 92.9872 120.353 90.8548 122.755 90.2715C120.738 90.2261 119.119 91.814 117.938 93.2529C116.632 94.8408 115.327 96.3964 113.832 97.8158C115.157 96.9343 116.378 95.8843 117.442 94.7047C118.081 93.9983 116.802 95.4112 117.442 94.7047H117.448Z" fill="#F0F0F0"/>
<path d="M121.444 94.0304C120.275 94.3286 119.061 94.899 118.141 95.6767C119.492 95.2943 120.987 94.6915 122.149 93.9008C121.907 93.9267 121.672 93.9721 121.444 94.0369C120.765 94.2119 121.672 93.9786 121.444 94.0369V94.0304Z" fill="#F0F0F0"/>
<path d="M123.826 91.9048C122.573 91.8271 121.144 92.527 120.295 93.415C121.47 93.0132 122.769 92.553 123.826 91.9048C123.611 91.8919 123.409 92.1576 123.826 91.9048Z" fill="#F0F0F0"/>
<path d="M102.388 109.534C104.49 109.158 106.168 107.512 107.375 105.859C105.946 106.961 104.634 108.289 102.884 108.892C101.553 109.346 99.3205 109.041 98.5176 110.461C99.4706 109.424 101.135 109.754 102.388 109.534C101.546 109.683 103.23 109.385 102.388 109.534Z" fill="#F0F0F0"/>
<path d="M103.715 105.276C104.942 104.297 106.822 104.465 108.271 104.031C109.883 103.545 111.398 102.703 112.768 101.737C110.777 102.489 108.898 103.428 106.789 103.856C105.288 104.161 102.566 104.699 102.853 106.825C102.866 106.203 103.238 105.652 103.721 105.282C104.426 104.718 103.245 105.645 103.721 105.282L103.715 105.276Z" fill="#F0F0F0"/>
<path d="M107.215 108.569C105.85 109.703 104.127 110.241 102.619 111.142C101.249 111.958 99.8712 113.319 99.8908 115.024C100.126 112.788 102.424 111.654 104.258 110.856C106.458 109.897 108.226 108.711 109.591 106.708C109.408 107.544 109.082 108.348 108.677 109.106C109.578 107.966 109.93 106.624 110.191 105.224C109.304 106.43 108.396 107.622 107.221 108.569C106.262 109.366 108.187 107.791 107.221 108.569H107.215Z" fill="#F0F0F0"/>
<path d="M113.859 105.094C112.866 105.451 111.352 105.865 110.928 106.954C111.319 106.313 112.103 106.079 112.782 105.865C113.617 105.6 114.466 105.366 115.301 105.094C116.809 104.602 118.382 103.986 119.524 102.852C117.736 103.863 115.778 104.401 113.859 105.101C113.304 105.302 115.301 104.576 113.859 105.101V105.094Z" fill="#F0F0F0"/>
<path d="M122.684 98.373C120.471 100.894 115.04 99.4878 113.924 103.15C115.641 99.8573 121.124 101.782 122.684 98.373C122.318 98.7943 122.423 98.9499 122.684 98.373Z" fill="#F0F0F0"/>
<path d="M122.056 100.92C121.384 101.322 120.64 101.594 119.883 101.782C120.666 101.866 121.43 101.711 122.154 101.426C121.789 101.97 121.436 102.521 121.156 103.111C122.468 101.925 123.525 100.395 124.674 99.0469C123.812 99.6885 122.957 100.33 122.056 100.914C121.397 101.309 122.331 100.739 122.056 100.914V100.92Z" fill="#F0F0F0"/>
<path d="M118.081 99.2546C119.811 98.9759 121.384 97.712 122.031 96.0981C120.725 97.7315 119.074 98.7037 117.076 99.3C117.409 99.3259 117.749 99.3129 118.081 99.2546C119.067 99.0926 117.749 99.3194 118.081 99.2546Z" fill="#F0F0F0"/>
<path d="M61.7621 84.5804C60.326 84.0295 58.6811 83.7508 57.1602 83.5239C58.544 84.1591 60.2216 84.6322 61.7621 84.5804C61.5205 84.4896 61.1811 84.5998 61.7621 84.5804Z" fill="#F0F0F0"/>
<path d="M60.7969 83.1417C61.6846 83.4398 62.6572 83.537 63.5906 83.3815C64.5241 83.2259 65.4118 82.837 66.3714 82.8954C65.3661 82.4352 64.1846 82.863 63.1598 82.9861C62.0306 83.1222 60.8948 83.0185 59.8047 82.7074C60.118 82.8824 60.4574 83.0315 60.7969 83.1417C60.4509 83.025 61.8152 83.4852 60.7969 83.1417Z" fill="#F0F0F0"/>
<path d="M71.4678 87.2572C72.1597 87.4582 72.8255 87.7304 73.5305 87.8924C71.99 86.6869 69.6597 85.9221 67.8516 86.9721C69.0918 86.6415 70.2667 86.9072 71.4743 87.2572C72.1532 87.4582 70.5931 87.0045 71.4743 87.2572H71.4678Z" fill="#F0F0F0"/>
<path d="M78.2235 86.6091C79.1243 87.173 80.3384 87.4452 81.3697 87.0952C80.4755 86.9461 79.6008 86.7646 78.7653 86.4017C78.0864 86.1035 77.1986 85.3582 76.4219 85.7146C77.1268 85.6563 77.6817 86.2656 78.2235 86.6091C77.8514 86.3757 78.589 86.8424 78.2235 86.6091Z" fill="#F0F0F0"/>
<path d="M118.364 81.5022L98.1747 89.0401L91.5297 87.1216L84.4799 85.1318C82.13 84.4642 79.7736 83.8226 77.4237 83.1809C75.0673 82.5392 72.7174 81.8846 70.3544 81.2624L63.272 79.3893L56.1766 77.5615C51.4442 76.3625 46.6987 75.1958 41.9336 74.1069C46.5747 75.6301 51.2418 77.0754 55.9155 78.4884L62.9326 80.5819L69.9627 82.6235C72.3061 83.3105 74.656 83.9587 77.0059 84.6262C79.3558 85.2873 81.7057 85.9549 84.0622 86.5901L91.1249 88.5216L97.7373 90.2845L97.8287 95.6187L97.9593 101.452C98.0637 105.341 98.1812 109.23 98.3705 113.118C98.5598 109.23 98.6773 105.341 98.7817 101.452L98.9123 95.6187L99.0037 90.3299L118.338 81.5152L118.364 81.5022Z" fill="#F0F0F0"/>
<path d="M91.5862 74.8716C90.1371 74.4568 88.6749 74.0744 87.2193 73.6791C85.7636 73.2772 84.3015 72.9143 82.8393 72.5319C81.3837 72.1495 79.915 71.78 78.4528 71.4235L74.0598 70.3476L69.6537 69.3106L65.2411 68.3125L65.0518 68.2671L64.8886 68.3189C63.6745 68.6949 62.4735 69.0967 61.2659 69.4986C60.0583 69.8939 58.8572 70.2958 57.6562 70.7106C55.254 71.5337 52.8584 72.3828 50.4824 73.3031C52.9759 72.7717 55.4499 72.1754 57.9107 71.5532C59.1444 71.2421 60.3716 70.9245 61.5988 70.5939C62.7672 70.2828 63.9291 69.9782 65.091 69.6476L69.3078 70.73L73.7008 71.8124L78.1003 72.8559C79.569 73.2059 81.0377 73.543 82.5129 73.867C83.9882 74.1911 85.4568 74.5346 86.9321 74.8392C88.4073 75.1503 89.8825 75.4744 91.3642 75.7661C94.3212 76.3753 97.2912 76.9392 100.274 77.4318C97.3957 76.5179 94.4974 75.6624 91.5862 74.8587V74.8716Z" fill="#F0F0F0"/>
<path d="M98.3879 98.4831L98.5054 98.7618L124.511 87.7304L124.27 87.173L98.3748 98.159L40.7043 80.0889L40.5215 80.6722L98.2965 98.7747L98.3879 98.4831Z" fill="#F0F0F0"/>
<path d="M124.518 94.983L124.263 94.4256L98.3683 106.131L40.7043 88.0674L40.5215 88.6442L98.2965 106.747L98.3879 106.455L98.5119 106.734L124.518 94.983Z" fill="#F0F0F0"/>
<path d="M110.655 81.3077C109.239 81.7808 107.835 82.2669 106.432 82.7725C105.727 83.0188 105.035 83.2845 104.336 83.5438L102.248 84.3345L100.172 85.1512C99.5583 85.391 98.9448 85.6373 98.3377 85.89C97.0909 85.566 95.8572 85.2224 94.604 84.9178C93.2723 84.5873 91.9407 84.2567 90.5961 83.9586C89.2579 83.6475 87.9133 83.3623 86.5686 83.0836C85.2174 82.8179 83.8662 82.5521 82.502 82.3447C83.7813 82.8567 85.0803 83.3169 86.3793 83.7771C87.6783 84.2178 88.9838 84.665 90.2958 85.0734C91.6013 85.5011 92.9199 85.8836 94.2319 86.2789C95.5439 86.6808 96.869 87.0308 98.1876 87.4067L98.4226 87.4715L98.6706 87.3743C99.3625 87.1085 100.048 86.8169 100.74 86.5317L102.803 85.6761L104.852 84.7882C105.538 84.4901 106.216 84.1984 106.895 83.8873C108.253 83.278 109.604 82.6493 110.949 82.0077C112.287 81.3531 113.625 80.6984 114.937 79.979C113.488 80.3744 112.072 80.8345 110.655 81.2947V81.3077Z" fill="#F0F0F0"/>
<path d="M89.4518 112.71V87.3349L82.5 85.6821V110.234L89.4518 112.71Z" fill="#F0F0F0"/>
<path d="M85.8222 90.1021C85.4305 90.1021 85.1172 90.5363 85.1172 91.0743C85.1172 91.6122 85.437 92.0465 85.8222 92.0465C86.2073 92.0465 86.5271 91.6122 86.5271 91.0743C86.5271 90.5363 86.2073 90.1021 85.8222 90.1021Z" fill="black" fill-opacity="0.9"/>
<path d="M85.8222 94.561C85.4305 94.561 85.1172 94.9953 85.1172 95.5332C85.1172 96.0712 85.437 96.5055 85.8222 96.5055C86.2073 96.5055 86.5271 96.0712 86.5271 95.5332C86.5271 94.9953 86.2073 94.561 85.8222 94.561Z" fill="black" fill-opacity="0.9"/>
<path d="M85.8222 99.0142C85.4305 99.0142 85.1172 99.4484 85.1172 99.9864C85.1172 100.524 85.437 100.959 85.8222 100.959C86.2073 100.959 86.5271 100.524 86.5271 99.9864C86.5271 99.4484 86.2073 99.0142 85.8222 99.0142Z" fill="black" fill-opacity="0.9"/>
<path d="M85.8222 103.467C85.4305 103.467 85.1172 103.901 85.1172 104.439C85.1172 104.977 85.437 105.411 85.8222 105.411C86.2073 105.411 86.5271 104.977 86.5271 104.439C86.5271 103.901 86.2073 103.467 85.8222 103.467Z" fill="black" fill-opacity="0.9"/>
<path d="M85.8222 107.919C85.4305 107.919 85.1172 108.354 85.1172 108.892C85.1172 109.43 85.437 109.864 85.8222 109.864C86.2073 109.864 86.5271 109.43 86.5271 108.892C86.5271 108.354 86.2073 107.919 85.8222 107.919Z" fill="black" fill-opacity="0.9"/>
<path d="M83.2185 86.5112C83.2185 86.5112 83.2511 87.9955 83.3033 90.2251C83.3164 91.3399 83.336 92.6362 83.349 94.0297C83.349 95.4232 83.3621 96.9074 83.3686 98.3916C83.3621 99.8759 83.3556 101.36 83.349 102.754C83.3295 104.147 83.3164 105.443 83.3033 106.558C83.2511 108.788 83.2185 110.272 83.2185 110.272C83.2185 110.272 83.1859 108.788 83.1336 106.558C83.1206 105.443 83.101 104.147 83.0879 102.754C83.0879 101.36 83.0749 99.8759 83.0684 98.3916C83.0749 96.9074 83.0814 95.4232 83.0879 94.0297C83.1075 92.6362 83.1206 91.3399 83.1336 90.2251C83.1859 87.9955 83.2185 86.5112 83.2185 86.5112Z" fill="black" fill-opacity="0.9"/>
<path d="M88.5779 87.4512C88.5779 87.4512 88.6105 89.0521 88.6627 91.4502C88.6758 92.6493 88.6954 94.0492 88.7084 95.5464C88.7084 97.0436 88.7215 98.6445 88.728 100.245C88.7215 101.846 88.7149 103.441 88.7084 104.944C88.6888 106.442 88.6758 107.842 88.6627 109.041C88.6105 111.439 88.5779 113.04 88.5779 113.04C88.5779 113.04 88.5452 111.439 88.493 109.041C88.48 107.842 88.4604 106.442 88.4473 104.944C88.4473 103.447 88.4343 101.846 88.4277 100.245C88.4343 98.6445 88.4408 97.0501 88.4473 95.5464C88.4669 94.0492 88.48 92.6493 88.493 91.4502C88.5452 89.0521 88.5779 87.4512 88.5779 87.4512Z" fill="black" fill-opacity="0.9"/>
<path d="M51.2922 98.6711V76.8417L46.1289 75.2603V96.7072L51.2922 98.6711Z" fill="#F0F0F0"/>
<path d="M48.5912 79.5055C48.8719 79.5055 49.1003 79.1943 49.1003 78.8055C49.1003 78.4166 48.8719 78.1055 48.5912 78.1055C48.3105 78.1055 48.082 78.4166 48.082 78.8055C48.082 79.1943 48.3105 79.5055 48.5912 79.5055Z" fill="black" fill-opacity="0.9"/>
<path d="M48.5912 82.4091C48.3105 82.4091 48.082 82.7202 48.082 83.1091C48.082 83.498 48.3105 83.8091 48.5912 83.8091C48.8719 83.8091 49.1003 83.498 49.1003 83.1091C49.1003 82.7202 48.8719 82.4091 48.5912 82.4091Z" fill="black" fill-opacity="0.9"/>
<path d="M48.5912 86.7124C48.3105 86.7124 48.082 87.0235 48.082 87.4124C48.082 87.8013 48.3105 88.1124 48.5912 88.1124C48.8719 88.1124 49.1003 87.8013 49.1003 87.4124C49.1003 87.0235 48.8719 86.7124 48.5912 86.7124Z" fill="black" fill-opacity="0.9"/>
<path d="M48.5912 91.0103C48.3105 91.0103 48.082 91.3214 48.082 91.7102C48.082 92.0991 48.3105 92.4102 48.5912 92.4102C48.8719 92.4102 49.1003 92.0991 49.1003 91.7102C49.1003 91.3214 48.8719 91.0103 48.5912 91.0103Z" fill="black" fill-opacity="0.9"/>
<path d="M48.5912 95.3134C48.3105 95.3134 48.082 95.6245 48.082 96.0134C48.082 96.4023 48.3105 96.7134 48.5912 96.7134C48.8719 96.7134 49.1003 96.4023 49.1003 96.0134C49.1003 95.6245 48.8719 95.3134 48.5912 95.3134Z" fill="black" fill-opacity="0.9"/>
<path d="M46.7945 76.2261C46.7945 76.2261 46.8141 77.477 46.8467 79.3566C46.8598 81.2362 46.8728 83.738 46.8859 86.2463C46.8728 88.7481 46.8533 91.2564 46.8467 93.136C46.8141 95.0156 46.7945 96.2666 46.7945 96.2666C46.7945 96.2666 46.7749 95.0156 46.7423 93.136C46.7292 91.2564 46.7162 88.7546 46.7031 86.2463C46.7162 83.7445 46.7358 81.2362 46.7423 79.3566C46.7749 77.477 46.7945 76.2261 46.7945 76.2261Z" fill="black" fill-opacity="0.9"/>
<path d="M50.6129 77.3925C50.6129 77.3925 50.6325 78.6434 50.6651 80.523C50.6781 82.4026 50.6912 84.9045 50.7043 87.4128C50.6912 89.9146 50.6716 92.4229 50.6651 94.3025C50.6325 96.1821 50.6129 97.433 50.6129 97.433C50.6129 97.433 50.5933 96.1821 50.5606 94.3025C50.5476 92.4229 50.5345 89.9211 50.5215 87.4128L50.5606 80.523C50.5933 78.6434 50.6129 77.3925 50.6129 77.3925Z" fill="black" fill-opacity="0.9"/>
<path d="M100.014 83.8154C99.5895 83.608 99.1652 83.4006 98.7279 83.2256C98.1143 82.9858 97.3832 82.9404 96.848 82.5515C95.8166 81.8061 94.9811 80.9636 93.6756 80.6913C93.0359 80.5552 92.3766 80.5488 91.7369 80.6719C91.2082 80.7691 90.6925 81.0543 90.1377 80.97C89.5502 80.8793 89.0802 80.458 88.545 80.2312C87.951 79.9719 87.3047 79.7645 86.6781 79.596C85.9797 79.4145 85.6402 78.9803 85.1964 78.4488C84.6154 77.7618 83.9561 77.146 83.2381 76.6016C80.9535 74.884 78.1793 74.0803 75.3268 74.2164C73.6427 74.2942 71.9847 74.6572 70.3593 75.0914C69.6609 75.2794 68.9102 75.6488 68.1922 75.4025C67.9311 75.3118 67.683 75.1951 67.4285 75.0849C65.0198 74.2488 61.867 73.4516 59.2756 74.5405C58.9819 74.6636 58.7077 74.8905 58.414 74.9877C58.0745 75.1044 57.7482 74.9423 57.4283 74.8322C56.534 74.534 55.6332 74.3072 54.6933 74.197C53.1267 74.009 51.5601 74.1192 50 74.3331C51.893 73.8859 53.8186 73.6655 55.7638 73.9118C56.2729 73.9766 56.769 74.0738 57.2651 74.2035C57.7939 74.3461 58.0223 74.5211 58.4792 74.2359C59.3866 73.6785 60.444 73.3998 61.495 73.2831C63.512 73.0563 65.4441 73.4387 67.3697 74.0025C67.6896 74.0998 68.0029 74.2035 68.3162 74.3266C69.0342 74.5923 69.8959 74.0738 70.6139 73.8794C72.8724 73.2572 75.2419 72.8164 77.5918 73.0757C79.8242 73.322 81.9913 74.1581 83.7799 75.5062C84.7982 76.2775 85.6663 77.1849 86.4496 78.183C86.7238 78.533 86.998 78.533 87.4157 78.6756C87.9444 78.8571 88.4993 79.0775 89.0084 79.3238C89.4131 79.5247 89.8309 79.946 90.2813 80.0367C90.6664 80.1145 91.1299 79.8812 91.515 79.8228C92.7226 79.6284 94.015 79.8228 95.0986 80.3932C95.5947 80.6589 96.032 81.0154 96.4759 81.3654C96.8937 81.7024 97.2135 82.1237 97.7292 82.3052C98.6365 82.6228 99.4394 83.0311 100.027 83.8219L100.014 83.8154Z" fill="#F0F0F0"/>
<path d="M62.2986 87.4911L66.6524 88.8587C66.8939 88.742 67.1093 88.5994 67.2986 88.4244L62.1484 86.8105C62.1745 87.0439 62.2202 87.2772 62.2986 87.4976V87.4911Z" fill="black" fill-opacity="0.9"/>
<path d="M63.7545 88.327C63.7545 88.327 63.65 88.2816 63.4934 88.1585C63.3367 88.0353 63.1278 87.8344 62.9712 87.5233C62.8211 87.2187 62.7231 86.8103 62.7427 86.3826C62.7688 85.9548 62.8994 85.4946 63.1801 85.1122C63.4607 84.7298 63.9046 84.4835 64.3354 84.4057C64.7663 84.3215 65.1775 84.3928 65.5039 84.4835C65.8302 84.5743 66.0848 84.7104 66.2545 84.8076C66.4242 84.9048 66.5156 84.9761 66.5156 84.9761C66.5156 84.9761 66.4177 84.9243 66.2415 84.8465C66.0652 84.7622 65.8041 84.6715 65.4777 84.6002C65.1579 84.5289 64.7663 84.503 64.3746 84.5872C63.9829 84.665 63.5978 84.8918 63.3563 85.2354C63.1017 85.5724 62.9647 85.9937 62.932 86.3955C62.9059 86.7974 62.9516 87.1798 63.0822 87.4779C63.2062 87.7761 63.3759 87.9964 63.5195 88.1325C63.6566 88.2686 63.7545 88.327 63.7545 88.327Z" fill="#F0F0F0"/>
<path d="M66.9527 85.6764C65.8626 85.5079 64.185 85.3264 64.3156 86.8949C64.4592 88.6125 66.9396 87.9319 67.4162 86.7458C67.4684 88.7745 64.0218 89.3449 63.5649 87.2708C63.3887 86.4866 63.6628 85.5014 64.4527 85.1644C65.2621 84.8144 66.2934 85.1774 66.9592 85.6764H66.9527Z" fill="#F0F0F0"/>
<path d="M48.7487 49.0486C50.0607 49.243 51.0986 50.1829 52.3584 50.5264C53.7096 50.8958 55.1521 50.5847 56.4511 50.1504C54.8127 50.3643 53.2396 50.6171 51.6665 49.9495C50.3675 49.3921 48.6573 48.2708 47.2734 49.2495C47.7238 49.0162 48.2526 48.9708 48.7487 49.0486C48.2526 48.9708 49.4863 49.1588 48.7487 49.0486Z" fill="#F0F0F0"/>
<path d="M57.6777 50.0863C60.3997 50.1511 62.4624 52.8862 65.2431 52.4714C62.6386 52.0566 60.4128 49.7168 57.6777 50.0863C58.1608 50.0215 58.1086 50.0992 57.6777 50.0863Z" fill="#F0F0F0"/>
<path d="M67.2403 52.8402C65.863 53.4689 64.3878 53.7411 62.88 53.4948C61.3982 53.255 60.0079 52.5939 58.5 52.5161C60.0601 52.8078 61.4439 53.6698 63.0105 53.9226C64.4727 54.1559 66.1046 53.8059 67.2403 52.8402C66.3918 53.5531 66.7965 53.0411 67.2403 52.8402Z" fill="#F0F0F0"/>
<path d="M70.5314 53.2421C72.3917 54.0004 74.4348 53.8902 76.3735 53.5208C74.7939 53.5337 73.1816 53.6245 71.628 53.255C70.0483 52.8726 68.534 52.1532 67 51.6152C68.1684 52.1726 69.3238 52.7689 70.5314 53.2485C71.2559 53.5467 69.8068 52.9569 70.5314 53.2485V53.2421Z" fill="#F0F0F0"/>
<path d="M74.3114 56.0942C72.2292 54.9664 69.6377 54.1433 67.2617 54.6488C69.7422 54.5775 71.9485 55.5238 74.3114 56.0942C73.9655 55.9062 73.4498 55.8868 74.3114 56.0942Z" fill="#F0F0F0"/>
<path d="M47.9253 51.0578C48.3561 51.1615 48.7739 51.3235 49.1982 51.4596C48.2843 50.6041 46.783 50.3902 45.6211 50.7856C46.4044 50.7856 47.1616 50.8763 47.9253 51.0578C47.3705 50.9217 48.3561 51.1615 47.9253 51.0578Z" fill="#F0F0F0"/>
<path d="M53.4872 49.4766C54.0355 49.7229 54.623 49.9044 55.23 49.7812C53.7026 49.5479 52.2796 47.9988 50.6738 48.459C51.7313 48.4396 52.5603 49.0683 53.4872 49.4766C52.7757 49.1655 53.7548 49.5997 53.4872 49.4766Z" fill="#F0F0F0"/>
<path d="M77.4774 55.3939C76.8834 55.2708 76.2503 55.2514 75.6562 55.4069C76.8769 55.2254 78.0453 55.7504 79.1093 56.2625C79.6315 56.5152 80.1537 56.768 80.702 56.9624C80.8522 57.0143 81.7073 57.3578 81.8248 57.2347C81.3417 57.7402 80.1668 57.7791 79.5401 57.7272C80.7673 58.1226 81.89 57.643 82.8887 56.956C82.0859 56.8976 81.3939 56.8069 80.6302 56.5282C79.5793 56.1458 78.5741 55.6143 77.4644 55.3875C76.8638 55.2643 78.0714 55.5106 77.4644 55.3875L77.4774 55.3939Z" fill="#F0F0F0"/>
<path d="M87.8613 57.0921C87.5871 57.3255 87.2803 57.5199 86.9866 57.7208C87.6263 57.4486 88.4031 57.1894 88.971 56.781C87.5937 56.7616 86.3991 56.606 85.1328 56.0162C83.749 55.3681 82.2737 54.357 80.668 54.7264C82.228 54.5903 83.5009 55.6209 84.8064 56.3079C85.4396 56.6384 86.0989 56.8847 86.8038 57.0079C86.8952 57.0208 87.8678 57.1051 87.8613 57.0921Z" fill="#F0F0F0"/>
<path d="M88.241 59.0105C86.6744 58.3624 84.8859 58.2004 83.2148 58.4596C85.2384 58.5893 87.1379 59.0559 89.1157 59.4513C88.835 59.2828 88.5413 59.1337 88.241 59.0105C87.3468 58.6411 88.5413 59.1337 88.241 59.0105Z" fill="#F0F0F0"/>
<path d="M90.7535 56.7875C92.4115 58.0514 94.67 58.4662 96.7131 58.5375C95.2575 58.1033 93.7627 57.8375 92.3527 57.2607C91.6934 56.995 91.0994 56.645 90.5054 56.2626C89.9832 55.932 89.2717 55.5626 88.6777 55.9774C89.4741 55.595 90.1791 56.3663 90.7535 56.7875C91.0342 57.0014 90.4663 56.5801 90.7535 56.7875Z" fill="#F0F0F0"/>
<path d="M94.2328 60.3978C96.2041 61.033 99.0762 61.8885 100.845 60.3395C99.1937 61.2858 97.1898 60.7737 95.4665 60.3395C93.6388 59.8728 91.8568 59.2765 90.1074 58.583C91.4129 59.3284 92.8033 59.9311 94.2328 60.4043C95.0879 60.683 93.3777 60.1256 94.2328 60.4043V60.3978Z" fill="#F0F0F0"/>
<path d="M100.617 59.2761C101.205 59.4706 101.799 59.6585 102.412 59.7428C101.015 58.8613 99.2725 58.3169 97.6602 57.9863C98.6001 58.5048 99.5988 58.9391 100.617 59.2761C99.8534 59.0234 101.198 59.4706 100.617 59.2761Z" fill="#F0F0F0"/>
<path d="M103.389 61.1691C102.723 61.2274 102.064 61.3376 101.418 61.4996C100.824 61.6422 100.171 61.9209 99.5508 61.8626C100.23 62.1218 101.163 61.882 101.862 61.7653C102.632 61.6357 103.435 61.4672 104.153 61.1496C103.898 61.1367 103.644 61.1496 103.395 61.1755C102.658 61.2404 103.644 61.1561 103.395 61.1755L103.389 61.1691Z" fill="#F0F0F0"/>
<path d="M57.5551 46.7802C58.0512 46.9358 58.5277 47.1367 59.0107 47.3052C57.9598 46.3525 56.3018 45.9701 54.918 46.1969C55.8122 46.333 56.6869 46.508 57.5486 46.7802C58.0381 46.9358 56.9154 46.5793 57.5486 46.7802H57.5551Z" fill="#F0F0F0"/>
<path d="M52.965 46.3266C53.2326 46.4433 53.5002 46.5534 53.794 46.5988C53.2522 46.0738 52.3906 45.7238 51.666 45.5488C52.0511 45.8599 52.5146 46.1257 52.965 46.3201C53.2261 46.4368 52.619 46.171 52.965 46.3201V46.3266Z" fill="#F0F0F0"/>
<path d="M64.988 48.459C65.693 48.6729 66.4241 48.8154 67.1682 48.8154C65.2426 48.2256 63.4018 47.5581 61.6133 46.6377C62.5924 47.4673 63.7608 48.096 64.9945 48.4654C65.6995 48.6793 64.0676 48.1932 64.9945 48.4654L64.988 48.459Z" fill="#F0F0F0"/>
<path d="M70.2235 49.0422C70.3083 49.0552 71.1373 49.107 71.1438 49.133C71.1112 49.2885 70.3867 49.4505 70.23 49.4959C69.7992 49.6191 69.3553 49.6968 68.9114 49.7422C70.3214 50.0015 71.4572 49.3922 72.5995 48.6857C70.8893 48.8218 69.2704 48.7635 67.6777 48.0376C68.4415 48.5431 69.3161 48.8802 70.2169 49.0422C70.4715 49.0811 69.7078 48.9515 70.2169 49.0422H70.2235Z" fill="#F0F0F0"/>
<path d="M78.5784 51.0258C80.0209 51.3628 81.6528 51.0582 82.8996 50.248C81.346 50.2999 79.7664 50.1962 78.3956 49.373C79.3878 50.086 80.5888 50.3453 81.7834 50.5008C81.7246 50.4878 81.4962 50.598 81.4505 50.611C81.0849 50.7147 80.7129 50.786 80.3343 50.8249C79.5771 50.8897 78.8329 50.786 78.1084 50.5786C76.6201 50.1443 75.1188 49.2758 73.5195 49.5805C75.3277 49.5286 76.8681 50.6434 78.5849 51.0323C79.6423 51.2786 77.5209 50.7925 78.5849 51.0323L78.5784 51.0258Z" fill="#F0F0F0"/>
<path d="M82.6527 51.9721C85.0091 51.998 87.0522 53.0934 89.1476 54.0137C87 52.3221 84.0496 51.1425 81.3341 52.1017C81.7649 52.0175 82.2088 51.9656 82.6527 51.9721C83.9516 51.9851 82.2088 51.9721 82.6527 51.9721Z" fill="#F0F0F0"/>
<path d="M86.8297 51.2651C88.2854 51.492 89.6692 52.6716 91.1966 52.3216C89.5256 52.0494 87.6979 50.6105 85.9746 51.2716C86.2553 51.2392 86.549 51.2068 86.8297 51.2586C87.6587 51.3883 86.549 51.2068 86.8297 51.2586V51.2651Z" fill="#F0F0F0"/>
<path d="M95.798 52.9507C96.4051 52.9637 97.0122 53.0025 97.6257 52.9701C96.0461 52.4257 94.2249 52.51 92.6191 52.8988C93.6831 52.8988 94.7406 52.9248 95.8046 52.9507C96.4116 52.9637 95.0147 52.9312 95.8046 52.9507H95.798Z" fill="#F0F0F0"/>
<path d="M93.5608 54.772C94.0831 54.9081 94.6379 54.9664 95.1731 54.8433C93.7828 54.409 92.4446 54.1044 91.2109 53.2812C91.8245 53.9812 92.647 54.5516 93.5608 54.7785C94.0831 54.9146 92.8689 54.6035 93.5608 54.7785V54.772Z" fill="#F0F0F0"/>
<path d="M104.339 54.694C103.418 54.2403 102.289 54.169 101.277 54.2079C102.935 54.5968 104.567 54.8366 105.749 56.1847C105.546 55.5106 104.959 54.9986 104.339 54.694Z" fill="#F0F0F0"/>
<path d="M109.304 55.42C108.599 55.4589 107.907 55.3292 107.274 55.0181C106.713 54.7459 106.151 54.3052 105.492 54.3894C106.347 54.545 106.889 55.3746 107.705 55.6468C108.475 55.8996 109.435 55.8348 110.081 55.3033C109.826 55.3552 109.565 55.4005 109.304 55.4135C108.554 55.4589 109.559 55.3941 109.304 55.4135V55.42Z" fill="#F0F0F0"/>
<path d="M103.45 56.3919C103.013 56.3011 102.562 56.2623 102.125 56.3206C103.287 56.6187 104.357 57.0854 105.493 57.4613C104.991 56.878 104.194 56.541 103.457 56.3919C103.019 56.3011 104.025 56.5086 103.457 56.3919H103.45Z" fill="#F0F0F0"/>
<path d="M46.5488 54.6419C47.1624 54.9141 47.8021 55.2253 48.4875 55.2188C47.1232 54.7003 44.6362 52.7105 43.3242 54.4086C44.3164 53.6956 45.5566 54.2012 46.5488 54.6419C46.1506 54.4669 47.1493 54.9077 46.5488 54.6419Z" fill="#F0F0F0"/>
<path d="M47.2617 54.085C48.9328 54.5905 50.5255 55.2516 52.1704 55.8155C50.8323 54.7655 48.9523 54.1692 47.2617 54.085C47.8949 54.1174 47.5685 54.1757 47.2617 54.085Z" fill="#F0F0F0"/>
<path d="M47.6321 56.321C47.0773 56.0941 45.5433 55.3941 45.1582 56.2173C45.7848 55.446 47.593 56.671 48.2131 56.9886C49.3097 57.546 50.4912 58.1747 51.751 58.1747C50.2954 57.7339 49.029 56.8978 47.6321 56.3275C47.2274 56.1654 48.6961 56.7617 47.6321 56.3275V56.321Z" fill="#F0F0F0"/>
<path d="M60.7457 58.4789C57.8605 57.7983 54.9949 55.9641 51.9531 56.2558C53.4936 56.3595 54.8775 56.8456 56.3004 57.3965C57.7104 57.9474 59.2052 58.5307 60.7457 58.4789C59.6295 58.5178 60.2692 58.3687 60.7457 58.4789Z" fill="#F0F0F0"/>
<path d="M62.5806 57.4487C61.9931 58.3302 61.4839 59.795 60.2306 59.8792C61.2816 60.0089 61.9409 58.9524 62.4174 58.2005C62.7829 57.6172 63.2203 57.2024 63.7425 56.7617C62.6001 57.0533 61.497 57.3061 60.309 57.1117C58.7163 56.8524 57.0974 55.595 55.4395 56.1654C56.8559 55.8672 58.1157 56.7552 59.3755 57.2218C60.0022 57.4487 60.6615 57.5718 61.3338 57.5718C61.5557 57.5718 62.4892 57.5718 62.5806 57.4422V57.4487Z" fill="#F0F0F0"/>
<path d="M60.7723 60.4233C59.2775 60.1705 57.8088 59.0168 56.2422 59.3668C57.6782 59.2826 58.8206 60.3001 60.1522 60.6696C61.3532 61.0001 62.7501 60.864 63.788 60.1575C62.8089 60.4687 61.7971 60.5983 60.7723 60.4233C61.3598 60.527 60.1848 60.3261 60.7723 60.4233Z" fill="#F0F0F0"/>
<path d="M65.413 58.5698C64.8777 58.4467 64.362 58.2587 63.8398 58.0967C65.054 58.8939 66.7315 59.4578 68.2002 59.192C67.2864 58.9263 66.3334 58.7837 65.413 58.5633C64.8842 58.4402 66.1049 58.7254 65.413 58.5633V58.5698Z" fill="#F0F0F0"/>
<path d="M79.6039 60.981C78.4681 61.2208 77.3519 61.4217 76.1835 61.4671C74.3689 61.5319 72.5281 61.3569 70.7461 61.7911C73.0373 61.5254 75.3349 62.1152 77.6261 61.8106C76.7645 62.2772 75.8114 62.5754 74.8454 62.7309C76.6731 62.8346 78.1679 61.9856 79.6039 60.9874V60.981Z" fill="#F0F0F0"/>
<path d="M77.2738 60.048C78.7099 60.1711 79.9566 61.0267 81.3796 61.1174C80.2634 60.6702 79.2255 59.9637 78.0179 59.7628C76.8234 59.5683 75.5962 59.8082 74.4474 60.1257C75.3874 60.0609 76.3338 59.9637 77.2738 60.048C76.7255 59.9961 77.8286 60.0933 77.2738 60.048Z" fill="#F0F0F0"/>
<path d="M84.5579 62.7372C85.3803 62.802 86.242 62.7826 86.9992 62.4002C84.9038 62.6335 82.2667 61.5446 80.3672 62.7631C81.7771 62.29 83.1218 62.64 84.5579 62.7372C84.9691 62.7696 83.4873 62.6659 84.5579 62.7372Z" fill="#F0F0F0"/>
<path d="M81.596 64.0729C80.643 63.8072 79.7292 63.3794 78.7305 63.3081C80.0229 63.6451 81.1848 64.3711 82.4642 64.7599C83.7893 65.1618 85.2058 65.421 86.5896 65.3562C84.9186 64.9609 83.241 64.5655 81.596 64.0729C82.8232 64.4423 80.6626 63.8072 81.596 64.0729Z" fill="#F0F0F0"/>
<path d="M87.1829 63.9042C86.628 63.7421 86.0471 63.6643 85.4727 63.7032C86.987 64.1375 88.2664 64.8569 89.6437 65.5893C89.0954 64.7467 88.1424 64.1764 87.1829 63.9042C86.628 63.7421 87.9139 64.1051 87.1829 63.9042Z" fill="#F0F0F0"/>
<path d="M91.8301 63.0159C90.5572 62.3029 89.0624 61.8751 87.6133 61.7261C89.2191 62.3483 90.8575 63.1261 92.5481 63.4825C92.3261 63.3075 92.0781 63.152 91.8301 63.0159C92.0781 63.152 91.099 62.6075 91.8301 63.0159Z" fill="#F0F0F0"/>
<path d="M96.2168 66.5682C95.6489 66.1663 95.2051 65.6025 94.5131 65.408C93.8408 65.2136 93.1293 65.3756 92.4766 65.5571C93.0183 65.5377 93.5862 65.4988 94.115 65.6414C94.6568 65.7904 95.0027 66.1534 95.4074 66.5163C96.2429 67.2682 97.3396 67.845 98.4819 67.858C97.692 67.4821 96.9218 67.0932 96.2168 66.5617C95.7991 66.2701 96.6281 66.8663 96.2168 66.5617V66.5682Z" fill="#F0F0F0"/>
<path d="M99.4675 64.9867C97.9923 65.1681 96.6085 64.7339 95.2051 64.332C96.5563 64.9737 98.0968 65.6218 99.6307 65.4209C99.0628 65.732 98.4754 65.9265 97.8291 66.0107C99.4023 66.2246 100.545 65.2783 101.654 64.345C100.936 64.5978 100.225 64.8894 99.4675 64.9867C99.0824 65.032 99.8527 64.9348 99.4675 64.9867Z" fill="#F0F0F0"/>
<path d="M99.7607 67.2876C99.4539 67.0478 99.0362 66.8469 98.6445 66.9895C99.7085 67.1645 100.022 68.6682 101.099 68.7265C100.603 68.2987 100.283 67.6959 99.7607 67.2876C100.178 67.6182 99.6041 67.1645 99.7607 67.2876Z" fill="#F0F0F0"/>
<path d="M124.818 62.2322C123.356 57.7924 119.505 54.5323 114.772 53.7351L58.3813 44.1685C55.7964 43.7278 53.1462 44.1556 50.9269 45.3741C48.1918 46.8713 44.3471 50.1574 41.5729 57.2934L41.3184 57.9545L66.8932 66.7627L67.1934 65.9331L83.7668 69.796L105.001 74.7996L115.203 77.444L117.005 77.2626L124.831 80.1857L124.995 79.5181C125.092 79.1227 127.325 69.8025 124.831 62.2322H124.818ZM51.5209 46.437C53.4987 45.3546 55.8551 44.9722 58.1789 45.3676L111.45 54.4027C109.537 55.1286 107.847 56.2823 106.424 57.8249L50.8289 46.8454C51.0639 46.6963 51.2989 46.5537 51.5209 46.437ZM50.1109 47.325L105.954 58.3563C105.954 58.3563 105.928 58.3887 105.915 58.4017C104.648 59.9443 103.669 61.6943 102.964 63.5544L45.7962 51.8231C47.2519 49.7296 48.7597 48.2972 50.1109 47.3315V47.325ZM124.747 71.1506C124.733 71.87 124.701 72.57 124.655 73.2311L105.543 66.5294L124.583 74.1515C124.512 74.9098 124.427 75.5969 124.342 76.2256L103.904 69.0182L124.205 77.1394C124.113 77.7163 124.022 78.2089 123.95 78.5589L101.528 70.1849L42.9829 57.073C43.7466 55.2323 44.5756 53.6832 45.4307 52.3675L102.755 64.1313C102.383 65.2137 102.09 66.322 101.9 67.4497C103.245 64.4877 104.387 61.4739 106.626 59.0239C108.695 56.7619 111.28 55.3036 114.335 54.8888L114.577 54.9277C117.873 55.4851 120.693 57.3647 122.423 60.0285L112.116 56.5804L123.082 61.1757C123.31 61.6359 123.506 62.1091 123.663 62.6016C123.774 62.9452 123.878 63.3016 123.97 63.6516L110.471 59.0628L124.224 64.747C124.381 65.4924 124.492 66.2442 124.577 66.996L108.832 61.5517L124.675 68.0007C124.727 68.7395 124.76 69.4654 124.766 70.1784L107.194 64.0405L124.76 71.1441L124.747 71.1506Z" fill="#F0F0F0"/>
<path d="M103.775 75.4152L97.874 74.0541C97.4628 73.9569 97.2082 73.555 97.3061 73.1467C97.404 72.7384 97.8087 72.4856 98.22 72.5828L104.121 73.9439C104.532 74.0411 104.787 74.443 104.689 74.8513C104.591 75.2596 104.186 75.5124 103.775 75.4152Z" fill="black" fill-opacity="0.9"/>
<path d="M103.945 75.7394C103.866 75.7394 103.782 75.733 103.703 75.7135L97.8023 74.3524C97.2279 74.2228 96.8689 73.6524 96.9995 73.0821C97.0647 72.8034 97.2344 72.57 97.476 72.421C97.7175 72.2719 98.0047 72.2265 98.2854 72.2849L104.186 73.646C104.467 73.7108 104.702 73.8793 104.852 74.1191C105.002 74.3589 105.054 74.6441 104.989 74.9228C104.872 75.4154 104.434 75.7459 103.945 75.7459V75.7394ZM103.84 75.1172C104.082 75.1756 104.33 75.02 104.389 74.7802C104.415 74.6635 104.395 74.5404 104.33 74.4367C104.265 74.333 104.167 74.2617 104.043 74.2358L98.1418 72.8747C98.0243 72.8487 97.9003 72.8682 97.7958 72.933C97.6914 72.9978 97.6196 73.095 97.5935 73.2182C97.5347 73.458 97.6914 73.7043 97.9329 73.7626L103.834 75.1237L103.84 75.1172Z" fill="#F0F0F0"/>
<path d="M73.7725 68.5061L68.7724 67.3524C68.3612 67.2552 68.1066 66.8534 68.2045 66.445C68.3025 66.0367 68.7072 65.7839 69.1184 65.8812L74.1185 67.0349C74.5297 67.1321 74.7843 67.5339 74.6864 67.9422C74.5885 68.3506 74.1838 68.6034 73.7725 68.5061Z" fill="black" fill-opacity="0.9"/>
<path d="M73.9501 68.83C73.8718 68.83 73.7869 68.8236 73.7086 68.8041L68.7085 67.6504C68.4278 67.5856 68.1929 67.4171 68.0427 67.1773C67.8926 66.9375 67.8469 66.6523 67.9056 66.3736C67.9709 66.0949 68.1406 65.8615 68.3822 65.7125C68.6237 65.5634 68.9109 65.518 69.1916 65.5764L74.1916 66.7301C74.4723 66.7949 74.7073 66.9634 74.8574 67.2032C75.0076 67.443 75.0533 67.7282 74.9945 68.0069C74.9293 68.2856 74.7595 68.5189 74.518 68.668C74.3483 68.7717 74.1525 68.83 73.9567 68.83H73.9501ZM68.9435 66.1662C68.8587 66.1662 68.7738 66.1921 68.702 66.2375C68.5976 66.3023 68.5258 66.3995 68.4996 66.5162C68.4735 66.6328 68.4931 66.756 68.5584 66.8597C68.6237 66.9634 68.7216 67.0347 68.8391 67.0606L73.8392 68.2143C73.9566 68.2402 74.0807 68.2208 74.1851 68.156C74.2896 68.0912 74.3614 67.9939 74.3875 67.8708C74.4136 67.7476 74.394 67.631 74.3287 67.5273C74.2634 67.4236 74.1655 67.3523 74.048 67.3263L69.048 66.1727C69.0153 66.1662 68.9762 66.1597 68.9435 66.1597V66.1662Z" fill="#F0F0F0"/>
<path d="M107.305 53.3009C107.305 53.3009 102.024 54.3314 98.9628 58.6934C95.8948 63.0554 93.1206 69.0053 93.1206 69.0053L86.8281 67.6766C86.8281 67.6766 89.6023 61.7267 92.6703 57.3647C95.7382 53.0027 100.216 51.9722 100.216 51.9722L107.305 53.3009Z" fill="#F0F0F0"/>
<path d="M101.273 53.6508C101.162 53.4758 100.882 53.4564 100.64 53.6054C100.399 53.7545 100.288 54.0138 100.399 54.1888C100.51 54.3638 100.79 54.3832 101.032 54.2341C101.273 54.0851 101.384 53.8258 101.273 53.6508Z" fill="black" fill-opacity="0.9"/>
<path d="M97.9171 55.4915C97.6886 55.6794 97.6103 55.9646 97.7474 56.1267C97.8845 56.2887 98.1782 56.2692 98.4067 56.0878C98.6351 55.8998 98.7135 55.6146 98.5764 55.4526C98.4393 55.2906 98.1456 55.31 97.9171 55.4915Z" fill="black" fill-opacity="0.9"/>
<path d="M95.563 57.8252C95.3476 58.052 95.3084 58.3632 95.4716 58.5122C95.6348 58.6678 95.9416 58.6094 96.1635 58.3826C96.3789 58.1557 96.4181 57.8446 96.2549 57.6956C96.0917 57.54 95.7849 57.5983 95.563 57.8252Z" fill="black" fill-opacity="0.9"/>
<path d="M93.5435 60.4564C93.3412 60.7221 93.3347 61.0527 93.524 61.2017C93.7133 61.3508 94.0396 61.2471 94.242 60.9879C94.4443 60.7221 94.4509 60.3916 94.2616 60.2425C94.0723 60.0934 93.7459 60.1971 93.5435 60.4564Z" fill="black" fill-opacity="0.9"/>
<path d="M91.9077 63.334C91.7184 63.6386 91.7445 63.9951 91.9665 64.1312C92.1884 64.2673 92.5213 64.1312 92.7106 63.8266C92.8999 63.5219 92.8738 63.1655 92.6519 63.0294C92.4299 62.8932 92.097 63.0294 91.9077 63.334Z" fill="black" fill-opacity="0.9"/>
<path d="M91.2079 65.9068C90.9598 65.7772 90.6139 65.9586 90.4376 66.2957C90.2614 66.6392 90.3201 67.0216 90.5682 67.1447C90.8162 67.2744 91.1622 67.0929 91.3384 66.7558C91.5147 66.4123 91.4559 66.0299 91.2079 65.9068Z" fill="black" fill-opacity="0.9"/>
<path d="M104.817 53.45C104.817 53.45 104.536 53.5731 104.053 53.8129C103.57 54.0527 102.904 54.4351 102.147 54.9407C101.39 55.4527 100.554 56.1333 99.7709 56.9564C99.3858 57.3712 99.0007 57.8184 98.6547 58.3045C98.3088 58.7906 97.9693 59.3092 97.643 59.8147C96.9772 60.8388 96.344 61.8823 95.7696 62.8739C95.1951 63.8656 94.6664 64.7924 94.2291 65.6026C93.3413 67.21 92.7734 68.2924 92.7734 68.2924C92.7734 68.2924 93.2565 67.1711 94.0724 65.5183C94.4902 64.7017 94.9732 63.7424 95.5346 62.7378C96.0959 61.7332 96.7226 60.6767 97.3819 59.6397C97.7213 59.1212 98.0607 58.6156 98.4197 58.1295C98.7722 57.6305 99.1704 57.1833 99.5751 56.762C100.385 55.9259 101.266 55.2842 102.043 54.7851C102.826 54.2926 103.531 53.9685 104.027 53.7546C104.523 53.5407 104.81 53.437 104.81 53.437L104.817 53.45Z" fill="black" fill-opacity="0.9"/>
<path d="M87.7148 67.2361C87.7148 67.2361 88.2109 66.1018 89.0465 64.4361C89.4707 63.6065 89.9668 62.6408 90.5413 61.6297C91.1157 60.6186 91.7554 59.5491 92.4408 58.5121C92.7802 57.9936 93.1523 57.4816 93.5243 57.0019C93.916 56.5223 94.3272 56.0686 94.758 55.6668C95.1888 55.2649 95.6262 54.902 96.0701 54.5909C96.5074 54.2733 96.9448 54.0075 97.3495 53.7742C98.1654 53.3075 98.903 53.0288 99.4122 52.8474C99.9278 52.6659 100.235 52.6011 100.235 52.6011C100.235 52.6011 99.9344 52.6918 99.4317 52.8992C98.9291 53.1066 98.2307 53.4501 97.4343 53.9298C97.0427 54.1761 96.6184 54.4483 96.2006 54.7788C95.7763 55.0964 95.3586 55.4723 94.9408 55.8677C94.523 56.2695 94.1249 56.7103 93.7528 57.1769C93.3807 57.663 93.0348 58.1621 92.6953 58.6871C92.0034 59.7112 91.3572 60.7676 90.7697 61.7723C90.1822 62.7769 89.6405 63.7102 89.1966 64.5268C88.2893 66.1472 87.7148 67.249 87.7148 67.249V67.2361Z" fill="black" fill-opacity="0.9"/>
<path d="M53.7341 60.0025C53.7341 60.0025 56.1036 54.8304 58.7864 51.0193C61.4692 47.2018 65.7578 46.2814 65.7578 46.2814L60.8948 45.1147C60.8948 45.1147 56.6062 46.0351 53.9234 49.8526C51.2406 53.6702 48.8711 58.8359 48.8711 58.8359L53.7341 60.0025Z" fill="#F0F0F0"/>
<path d="M60.9858 46.586C60.8944 46.4434 60.6594 46.424 60.4571 46.5536C60.2547 46.6767 60.1699 46.8971 60.2612 47.0462C60.3526 47.1888 60.5876 47.2017 60.79 47.0786C60.9923 46.9554 61.0772 46.7351 60.9858 46.586Z" fill="black" fill-opacity="0.9"/>
<path d="M57.9635 48.0767C57.7742 48.2388 57.709 48.4851 57.833 48.6212C57.9505 48.7573 58.2051 48.7378 58.3944 48.5758C58.5837 48.4138 58.6489 48.1675 58.5249 48.0314C58.4074 47.8952 58.1528 47.9147 57.9635 48.0767Z" fill="black" fill-opacity="0.9"/>
<path d="M55.8223 50.222C55.6395 50.4229 55.6069 50.6951 55.757 50.8247C55.9071 50.9544 56.1682 50.9025 56.351 50.7016C56.5338 50.5007 56.5664 50.2285 56.4163 50.0988C56.2727 49.9692 56.005 50.0211 55.8223 50.222Z" fill="black" fill-opacity="0.9"/>
<path d="M54.0013 52.6333C53.8251 52.8731 53.8251 53.1648 54.0013 53.288C54.1776 53.4111 54.4582 53.3204 54.628 53.0805C54.8042 52.8407 54.8042 52.5491 54.628 52.4259C54.4517 52.3028 54.171 52.3935 54.0013 52.6333Z" fill="black" fill-opacity="0.9"/>
<path d="M52.5206 55.2709C52.3575 55.5432 52.3836 55.8672 52.5859 55.9839C52.7883 56.1006 53.082 55.9774 53.2517 55.6987C53.4149 55.4265 53.3888 55.1024 53.1864 54.9858C52.9841 54.8691 52.6904 54.9922 52.5206 55.2709Z" fill="black" fill-opacity="0.9"/>
<path d="M51.8995 57.6302C51.671 57.5201 51.3577 57.6821 51.2011 57.9932C51.0444 58.3043 51.1032 58.6478 51.3316 58.7645C51.5601 58.8747 51.8734 58.7126 52.0301 58.4015C52.1867 58.0904 52.128 57.7469 51.8995 57.6302Z" fill="black" fill-opacity="0.9"/>
<path d="M63.597 46.3921C63.597 46.3921 63.3555 46.5023 62.9508 46.7162C62.5396 46.93 61.9782 47.2736 61.332 47.7208C60.6923 48.1745 59.9808 48.7708 59.3215 49.4967C58.6557 50.2161 58.0748 51.0976 57.5134 51.9791C56.3646 53.7355 55.3397 55.5698 54.6086 56.9633C53.8645 58.3503 53.3945 59.2901 53.3945 59.2901C53.3945 59.2901 53.8123 58.3243 54.5238 56.9179C55.2418 55.5114 56.234 53.6577 57.3633 51.8818C57.9377 51.0004 58.5382 50.1254 59.2236 49.4059C59.9025 48.68 60.627 48.0967 61.2798 47.643C61.9325 47.1958 62.5265 46.8912 62.9378 46.6902C63.3555 46.4893 63.597 46.3921 63.597 46.3921Z" fill="black" fill-opacity="0.9"/>
<path d="M49.7448 58.4211C49.7448 58.4211 50.1887 57.423 50.9263 55.9647C51.677 54.5129 52.7214 52.5944 53.9289 50.7601C54.2357 50.3064 54.5556 49.8592 54.9081 49.4509C55.2671 49.0361 55.6326 48.6537 56.0243 48.3231C56.8011 47.6426 57.6105 47.1176 58.3415 46.7352C59.0726 46.3463 59.7188 46.113 60.1692 45.9574C60.6262 45.8083 60.8938 45.75 60.8938 45.75C60.8938 45.75 59.8233 46.0287 58.3872 46.8259C57.6692 47.2148 56.8729 47.7463 56.1157 48.4333C55.7305 48.7703 55.3715 49.1527 55.0321 49.5611C54.6927 49.9759 54.3793 50.4231 54.0791 50.8768C52.8584 52.6786 51.7814 54.5841 51.0111 56.023C50.2344 57.4619 49.7383 58.4341 49.7383 58.4341L49.7448 58.4211Z" fill="black" fill-opacity="0.9"/>
<path d="M74.6019 57.6044C72.6697 54.7397 68.7859 55.6859 67.6436 56.0489C67.402 56.1267 67.2062 56.2952 67.0952 56.5221L65.7114 59.3998C65.6788 59.4646 65.6135 59.5165 65.5613 59.5424C64.432 60.1776 64.5626 61.4414 64.667 61.9599C64.6866 62.0701 64.6801 62.1803 64.6344 62.284L63.5639 64.8053C63.5182 64.9155 63.4268 65.0062 63.3093 65.071C61.5664 66.0367 60.9072 67.7284 61.5403 69.6145C61.8537 70.5284 61.4228 71.3709 61.1356 71.7922C61.0181 71.9672 60.9985 72.1811 61.0834 72.3756C61.1683 72.57 61.351 72.7061 61.5599 72.7385C61.8341 72.7774 62.1082 72.7968 62.3628 72.7968C63.6161 72.7968 64.5495 72.3885 64.5952 72.3691C67.389 71.1441 69.0535 69.7182 69.5496 68.1302C69.8564 67.1515 69.6149 66.3997 69.4713 66.0821L70.1175 64.8831C70.3133 64.5266 70.6332 64.2608 71.0183 64.1312C71.5731 63.9497 72.0235 63.5673 72.2846 63.0553L74.6345 58.5183C74.7912 58.2202 74.7716 57.8702 74.5954 57.6044H74.6019ZM74.3734 58.3757L72.03 62.9127C71.8016 63.3534 71.4099 63.684 70.94 63.8396C70.4765 63.9886 70.0914 64.3127 69.8629 64.734L69.1384 66.0692C69.1384 66.0692 71.0705 69.1867 64.4842 72.0774C64.4842 72.0774 63.1918 72.6543 61.6187 72.4274C61.3967 72.395 61.2727 72.1422 61.4033 71.9607C61.7362 71.4682 62.1931 70.5478 61.8406 69.5173C61.3445 68.0654 61.6056 66.3673 63.4659 65.3368C63.6357 65.2395 63.7793 65.0969 63.8576 64.9219L64.9281 62.4072C64.9934 62.2451 65.013 62.0766 64.9738 61.9081C64.8759 61.4285 64.7715 60.3526 65.7179 59.8211C65.8354 59.7563 65.9399 59.6655 65.9921 59.5424L67.3759 56.6646C67.4477 56.5156 67.5783 56.3989 67.7415 56.3471C68.7467 56.0295 72.5261 55.0702 74.3538 57.7859C74.4713 57.9674 74.4779 58.2007 74.38 58.3887L74.3734 58.3757Z" fill="black" fill-opacity="0.9"/>
<path d="M65.9852 59.5295L67.369 56.6517C67.4408 56.5027 67.5713 56.386 67.7345 56.3341C68.7398 56.0166 72.5192 55.0573 74.3469 57.773C74.4644 57.9545 74.4709 58.1878 74.373 58.3758L72.0296 62.9128C71.8012 63.3535 71.4095 63.684 70.9395 63.8396C70.4761 63.9887 70.091 64.3127 69.8625 64.734L69.1379 66.0692C69.1379 66.0692 71.0701 69.1868 64.4838 72.0775C64.4838 72.0775 63.1914 72.6543 61.6182 72.4275C61.3963 72.395 61.2723 72.1423 61.4028 71.9608C61.7357 71.4682 62.1927 70.5478 61.8402 69.5173C61.3441 68.0655 61.6052 66.3673 63.4655 65.3368C63.6352 65.2396 63.7789 65.097 63.8572 64.922L64.9277 62.4072C64.993 62.2452 65.0125 62.0767 64.9734 61.9081C64.8689 61.4285 64.771 60.3526 65.7175 59.8211C65.835 59.7563 65.9395 59.6656 65.9917 59.5424L65.9852 59.5295Z" fill="#F0F0F0"/>
<path d="M72.3558 59.4583C72.0164 59.7953 71.566 59.8925 71.3506 59.6851C71.1352 59.4712 71.2396 59.024 71.579 58.687C71.9185 58.3499 72.3689 58.2527 72.5843 58.4601C72.7997 58.674 72.6952 59.1212 72.3558 59.4583Z" fill="black" fill-opacity="0.9"/>
<path d="M68.473 58.7908C68.1336 59.1279 67.6832 59.2251 67.4678 59.0177C67.2523 58.8038 67.3568 58.3566 67.6962 58.0195C68.0356 57.6825 68.486 57.5853 68.7015 57.7927C68.9169 58.0066 68.8124 58.4538 68.473 58.7908Z" fill="black" fill-opacity="0.9"/>
<path d="M64.1704 69.9386C63.8441 69.8478 63.6744 69.4913 63.8114 69.1802L64.7645 67.0803C64.8689 66.8469 65.13 66.7173 65.3846 66.7692C65.7305 66.8405 65.9198 67.2164 65.7762 67.534L64.8232 69.6339C64.7122 69.8802 64.4316 70.0099 64.1704 69.9386Z" fill="black" fill-opacity="0.9"/>
<defs>
<filter id="filter0_d_518_15420" x="0" y="0" width="166" height="166" filterUnits="userSpaceOnUse" color-interpolation-filters="sRGB">
<feFlood flood-opacity="0" result="BackgroundImageFix"/>
<feColorMatrix in="SourceAlpha" type="matrix" values="0 0 0 0 0 0 0 0 0 0 0 0 0 0 0 0 0 0 127 0" result="hardAlpha"/>
<feOffset dy="4"/>
<feGaussianBlur stdDeviation="2"/>
<feComposite in2="hardAlpha" operator="out"/>
<feColorMatrix type="matrix" values="0 0 0 0 0 0 0 0 0 0 0 0 0 0 0 0 0 0 0.25 0"/>
<feBlend mode="normal" in2="BackgroundImageFix" result="effect1_dropShadow_518_15420"/>
<feBlend mode="normal" in="SourceGraphic" in2="effect1_dropShadow_518_15420" result="shape"/>
</filter>
<radialGradient id="paint0_radial_518_15420" cx="0" cy="0" r="1" gradientUnits="userSpaceOnUse" gradientTransform="translate(83 79) rotate(90) scale(79)">
<stop stop-color="#F2F2F2" stop-opacity="0.67"/>
<stop offset="0.760417" stop-color="#F0F0F0" stop-opacity="0"/>
</radialGradient>
</defs>
</svg>
